<?xml version="1.0" encoding="UTF-8" standalone="no"?>
<!-- Created with Inkscape (http://www.inkscape.org/) -->
<svg id="svg2580" xmlns:rdf="http://www.w3.org/1999/02/22-rdf-syntax-ns#" xmlns="http://www.w3.org/2000/svg" height="446" width="519" version="1.2" xmlns:cc="http://creativecommons.org/ns#" xmlns:xlink="http://www.w3.org/1999/xlink" xmlns:dc="http://purl.org/dc/elements/1.1/">
<metadata id="metadata192">
<rdf:RDF>
<cc:Work rdf:about="">
<dc:format>image/svg+xml</dc:format>
<dc:type rdf:resource="http://purl.org/dc/dcmitype/StillImage"/>
<dc:title/>
</cc:Work>
</rdf:RDF>
</metadata>
<defs id="defs3">
<pattern id="pattern5164" xlink:href="#pattern2929" patternTransform="matrix(0.4761776,0,0,0.7879023,22.913737,446.80724)"/>
<pattern id="pattern5109" xlink:href="#pattern2929" patternTransform="matrix(0.4761776,0,0,1.1699901,320.28216,-313.36777)"/>
<pattern id="pattern4042" xlink:href="#pattern4704" patternTransform="matrix(0.4761776,0,0,0.9625347,318.96637,740.76119)"/>
<pattern id="pattern3000" xlink:href="#pattern2906" patternTransform="matrix(0.4761776,0,0,0.7879023,451.86111,271.87433)"/>
<pattern id="pattern2984" xlink:href="#pattern2959" patternTransform="matrix(0.9693616,0,0,0.3348348,-8.5915226,1090.808)"/>
<pattern id="pattern2959" xlink:href="#pattern4384" patternTransform="matrix(1.0439279,0,0,0.3605913,-95.708458,1006.4118)"/>
<pattern id="pattern2929" xlink:href="#pattern2906" patternTransform="matrix(0.4761776,0,0,0.7879023,-98.138895,407.6185)"/>
<pattern id="pattern2906" xlink:href="#pattern4704" patternTransform="matrix(0.4761776,0,0,0.7879023,415.019,529.86752)"/>
<linearGradient id="x5003_" y2="145.59" gradientUnits="userSpaceOnUse" x2="609.32" y1="162.6" x1="592.31">
<stop id="stop29143" stop-color="#f2f2f2" offset="0"/>
<stop id="stop29145" stop-color="#e5e5e5" offset="1"/>
</linearGradient>
<pattern id="pattern4704" xlink:href="#pattern4396" patternTransform="matrix(0.4761776,0,0,0.9625347,197.91374,692.88657)"/>
<pattern id="pattern4396" xlink:href="#pattern4315" patternTransform="matrix(0.361895,0,0,0.361895,41.1944,774.2561)"/>
<pattern id="pattern4384" xlink:href="#pattern4313" patternTransform="matrix(0.361895,0,0,0.125005,324.40127,998.02207)"/>
<pattern id="pattern4315" xlink:href="#pattern4038" patternTransform="matrix(0.361895,0,0,0.361895,253.6944,752.2561)"/>
<pattern id="pattern4313" xlink:href="#pattern4038" patternTransform="matrix(0.361895,0,0,0.868548,-76.3056,819.3073)"/>
<marker id="TriangleInM" refY="0" refX="0" orient="auto">
<path id="path4167" fill="#5c5c4f" d="m5.77,0-8.65,5,0-10,8.65,5z" transform="scale(-0.4,-0.4)"/>
</marker>
<pattern id="pattern4062" xlink:href="#pattern4015" patternTransform="matrix(0.382948,0,0,0.3783632,0.712661,629.66376)"/>
<pattern id="black-spots" width="32" patternUnits="userSpaceOnUse" patternTransform="matrix(0.455007,0,0,0.455007,20.99995,116)" height="32">
<g id="black-spot" transform="translate(-448.3997,-513.505)">
<path id="path2961" opacity="0.1" fill="#000" d="M473.4,529.51c0,4.96-4.03,9-9,9s-9-4.04-9-9c0-4.97,4.03-9,9-9s9,4.03,9,9z"/>
</g>
</pattern>
<pattern id="pattern4038" xlink:href="#black-spots" patternTransform="matrix(0.361895,0,0,0.361895,-33.80556,922.2561)"/>
<pattern id="pattern4015" xlink:href="#white-spots" patternTransform="matrix(0.375,0,0,0.375,379,437.7952)"/>
<pattern id="white-spots" width="32" patternUnits="userSpaceOnUse" patternTransform="matrix(0.375,0,0,0.375,379,400)" height="32">
<g id="white-spot" transform="translate(-484.3997,-513.505)">
<path id="path3033" opacity="0.3" fill="#FFF" d="M509.4,529.51c0,4.96-4.03,9-9,9s-9-4.04-9-9c0-4.97,4.03-9,9-9s9,4.03,9,9z"/>
</g>
</pattern>
<radialGradient id="radialGradient4023" gradientUnits="userSpaceOnUse" cy="789.57" cx="265" gradientTransform="matrix(1.3488375,0,0,1.1452395,-92.441892,-76.881184)" r="265">
<stop id="stop3989" stop-color="#e3dcc0" stop-opacity="0" offset="0"/>
<stop id="stop3991" stop-color="#e3dcc0" offset="1"/>
</radialGradient>
<radialGradient id="radialGradient4393" gradientUnits="userSpaceOnUse" cy="668.36" cx="710" gradientTransform="matrix(1.522104,0,0,1.217683,-946.194,60.5088)" r="75">
<stop id="stop4092" stop-color="#abb400" stop-opacity="0" offset="0"/>
<stop id="stop4094" stop-color="#abb400" offset="1"/>
</radialGradient>
<radialGradient id="radialGradient2908" gradientUnits="userSpaceOnUse" cy="668.36" cx="710" gradientTransform="matrix(1.522104,0,0,1.217683,-946.194,60.5088)" r="75">
<stop id="stop5079" stop-color="#0093d9" stop-opacity="0" offset="0"/>
<stop id="stop5081" stop-color="#0093d9" offset="1"/>
</radialGradient>
<radialGradient id="radialGradient2931" gradientUnits="userSpaceOnUse" cy="668.36" cx="710" gradientTransform="matrix(1.522104,0,0,1.217683,-946.194,60.5088)" r="75">
<stop id="stop6180" stop-color="#5c5c4f" stop-opacity="0" offset="0"/>
<stop id="stop6182" stop-color="#5c5c4f" offset="1"/>
</radialGradient>
<linearGradient id="linearGradient2988" y2="174.24" gradientUnits="userSpaceOnUse" x2="609.99" gradientTransform="matrix(1.12,0,0,1.12,-649.08,-160.62)" y1="156.45" x1="592.2">
<stop id="stop29124" stop-color="#d9d9d9" offset="0"/>
<stop id="stop29126" stop-color="#FFF" offset="1"/>
</linearGradient>
<linearGradient id="linearGradient2990" y2="145.59" xlink:href="#x5003_" gradientUnits="userSpaceOnUse" x2="609.32" gradientTransform="matrix(1.12,0,0,1.12,-649.08,-160.62)" y1="162.6" x1="592.31"/>
<linearGradient id="linearGradient2992" y2="174.23" gradientUnits="userSpaceOnUse" x2="609.99" gradientTransform="matrix(1.12,0,0,1.12,-649.08,-160.62)" y1="156.45" x1="592.2">
<stop id="stop29157" stop-color="#d9d9d9" offset="0"/>
<stop id="stop29159" stop-color="#FFF" offset="1"/>
</linearGradient>
<linearGradient id="linearGradient2994" y2="170.16" gradientUnits="userSpaceOnUse" x2="613.84" gradientTransform="matrix(1.12,0,0,1.12,-649.08,-160.62)" y1="170.16" x1="601.49">
<stop id="stop29134" stop-color="#d9d9d9" offset="0"/>
<stop id="stop29136" stop-color="#FFF" offset="0.2"/>
<stop id="stop29138" stop-color="#999" offset="1"/>
</linearGradient>
<radialGradient id="radialGradient2998" gradientUnits="userSpaceOnUse" cy="230.77" cx="603.19" gradientTransform="matrix(1.23,0,0,1.23,-709.93,-245.02)" r="1.67">
<stop id="stop29201" stop-color="#c9ffc9" offset="0"/>
<stop id="stop29203" stop-color="#23a11f" offset="1"/>
</radialGradient>
<radialGradient id="radialGradient5111" gradientUnits="userSpaceOnUse" cy="668.36" cx="710" gradientTransform="matrix(1.522104,0,0,1.217683,-946.194,60.5088)" r="75">
<stop id="stop4056" stop-color="#a70000" stop-opacity="0" offset="0"/>
<stop id="stop4058" stop-color="#a70000" offset="1"/>
</radialGradient>
<radialGradient id="radialGradient5158" gradientUnits="userSpaceOnUse" cy="668.36" cx="710" gradientTransform="matrix(1.8987387,0,0,0.632914,-1213.6048,547.34687)" r="75">
<stop id="stop7167" stop-color="#4e376b" stop-opacity="0" offset="0"/>
<stop id="stop7169" stop-color="#4e376b" offset="1"/>
</radialGradient>
</defs>
<g id="background" transform="matrix(0.9792453,0,0,0.9911111,0,-597.00785)">
<path id="rect1933" fill="#e3dcc0" d="m20.424,602.36,489.15,0c11.315,0,20.424,9,20.424,20.179v409.64c0,11.179-9.1091,20.179-20.424,20.179h-489.15c-11.311,0-20.42-9-20.42-20.2v-409.66c0-11.179,9.1091-20.179,20.424-20.179z"/>
<path id="rect3092" fill="url(#pattern4062)" d="m20.424,602.36,489.15,0c11.315,0,20.424,9,20.424,20.179v409.64c0,11.179-9.1091,20.179-20.424,20.179h-489.15c-11.311,0-20.42-9-20.42-20.2v-409.66c0-11.179,9.1091-20.179,20.424-20.179z"/>
<path id="rect3985" fill="url(#radialGradient4023)" d="m20.424,602.36,489.15,0c11.315,0,20.424,9,20.424,20.179v409.64c0,11.179-9.1091,20.179-20.424,20.179h-489.15c-11.311,0-20.42-9-20.42-20.2v-409.66c0-11.179,9.1091-20.179,20.424-20.179z"/>
</g>
<g id="g4082" transform="translate(-92,-17.999962)" stroke="#0093d9" stroke-width="2" fill="none">
<path id="path4044" style="marker-start:none;marker-end:none;" d="m127.72,304.58,0-95.364"/>
<g id="g4058">
<path id="path4050" style="marker-start:none;marker-end:none;" d="m127.72,304.58c0-95.463,67-65.414,67-95.364"/>
<path id="path4052" style="marker-start:none;marker-end:none;" d="m127.72,304.58c0-89.718,134-53.236,134-95.364"/>
<path id="path4054" style="marker-start:none;marker-end:none;" d="m127.72,304.58c0-67.154,205-51.342,205-95.364"/>
<path id="path4056" style="marker-start:none;marker-end:none;" d="m127.72,304.58c0-48.495,274-37.478,274-95.364"/>
</g>
</g>
<g id="text2832" style="writing-mode:lr-tb;text-anchor:middle;text-align:start;" font-weight="normal" font-size="16px" font-stretch="normal" font-variant="normal" font-style="normal" font-family="Interstate-Bold" line-height="125%" fill="#5c5c4f">
<path id="path3172" d="m154.5,22.697,0,1.6641c-0.53126-0.49478-1.099-0.86457-1.7031-1.1094-0.59896-0.24478-1.237-0.36718-1.9141-0.36719-1.3333,0.000011-2.3542,0.40886-3.0625,1.2266-0.70834,0.81251-1.0625,1.9896-1.0625,3.5312,0,1.5365,0.35416,2.7135,1.0625,3.5312,0.70833,0.8125,1.7292,1.2188,3.0625,1.2188,0.67708,0.000001,1.3151-0.1224,1.9141-0.36719,0.60416-0.24479,1.1719-0.61458,1.7031-1.1094v1.6484c-0.55209,0.375-1.138,0.65625-1.7578,0.84375-0.6146,0.1875-1.2656,0.28125-1.9531,0.28125-1.7656,0-3.1562-0.53906-4.1719-1.6172-1.0156-1.0833-1.5234-2.5599-1.5234-4.4297,0-1.875,0.50781-3.3516,1.5234-4.4297,1.0156-1.0833,2.4062-1.625,4.1719-1.625,0.69791,0.000012,1.3542,0.09376,1.9688,0.28125,0.61978,0.1823,1.2005,0.45834,1.7422,0.82812"/>
<path id="path3174" d="m156.89,21.307,1.4375,0,0,12.156-1.4375,0,0-12.156"/>
<path id="path3176" d="m161.32,24.713,1.4375,0,0,8.75-1.4375,0,0-8.75m0-3.4062,1.4375,0,0,1.8203-1.4375,0,0-1.8203"/>
<path id="path3178" d="m173.25,28.729,0,0.70312-6.6094,0c0.0625,0.98959,0.35938,1.7448,0.89063,2.2656,0.53645,0.51563,1.2812,0.77344,2.2344,0.77344,0.55208,0.000001,1.0859-0.06771,1.6016-0.20312,0.52082-0.13542,1.0364-0.33854,1.5469-0.60938v1.3594c-0.51563,0.21875-1.0443,0.38542-1.5859,0.5-0.54167,0.11458-1.0912,0.17188-1.6484,0.17188-1.3958,0-2.5026-0.40625-3.3203-1.2188-0.8125-0.8125-1.2188-1.9115-1.2188-3.2969,0-1.4323,0.38542-2.5677,1.1562-3.4062,0.77604-0.84374,1.8203-1.2656,3.1328-1.2656,1.1771,0.000009,2.1068,0.38022,2.7891,1.1406,0.68749,0.75522,1.0312,1.7839,1.0312,3.0859m-1.4375-0.42188c-0.0104-0.78645-0.23178-1.4141-0.66406-1.8828-0.42709-0.46874-0.9948-0.70312-1.7031-0.70312-0.80209,0.000008-1.4453,0.22657-1.9297,0.67969-0.47917,0.45313-0.75521,1.0912-0.82812,1.9141l5.125-0.0078"/>
<path id="path3180" d="m182.85,28.182,0,5.2812-1.4375,0,0-5.2344c-0.00001-0.82812-0.16146-1.4479-0.48437-1.8594-0.32293-0.41145-0.8073-0.61718-1.4531-0.61719-0.77605,0.000008-1.388,0.2474-1.8359,0.74219-0.44792,0.4948-0.67187,1.1693-0.67187,2.0234v4.9453h-1.4453v-8.75h1.4453v1.3594c0.34375-0.52603,0.74739-0.91926,1.2109-1.1797,0.46874-0.26041,1.0078-0.39062,1.6172-0.39062,1.0052,0.000009,1.7656,0.31251,2.2812,0.9375,0.51562,0.6198,0.77343,1.5339,0.77344,2.7422"/>
<path id="path3182" d="m187.15,22.229,0,2.4844,2.9609,0,0,1.1172-2.9609,0,0,4.75c0,0.71354,0.0964,1.1719,0.28906,1.375,0.19791,0.20313,0.59635,0.30469,1.1953,0.30469h1.4766v1.2031h-1.4766c-1.1094,0-1.875-0.20573-2.2969-0.61719-0.42188-0.41667-0.63282-1.1719-0.63281-2.2656v-4.75h-1.0547v-1.1172h1.0547v-2.4844h1.4453"/>
<path id="path3184" d="m197.59,24.971,0,1.3594c-0.40626-0.20833-0.82813-0.36458-1.2656-0.46875-0.4375-0.10416-0.89063-0.15624-1.3594-0.15625-0.71355,0.000008-1.25,0.10938-1.6094,0.32812-0.35417,0.21876-0.53125,0.54688-0.53125,0.98438,0,0.33334,0.12761,0.59636,0.38282,0.78906,0.2552,0.18751,0.76822,0.36719,1.5391,0.53906l0.49219,0.10938c1.0208,0.21876,1.7448,0.52865,2.1719,0.92969,0.43229,0.39584,0.64843,0.95052,0.64844,1.6641-0.00001,0.8125-0.32293,1.4557-0.96875,1.9297-0.64063,0.47396-1.5234,0.71094-2.6484,0.71094-0.46875,0-0.95834-0.04687-1.4688-0.14062-0.50521-0.08854-1.0391-0.22396-1.6016-0.40625v-1.4844c0.53125,0.27604,1.0547,0.48438,1.5703,0.625,0.51562,0.13542,1.026,0.20313,1.5312,0.20312,0.67708,0.000001,1.1979-0.11458,1.5625-0.34375,0.36458-0.23437,0.54687-0.5625,0.54688-0.98438-0.00001-0.39062-0.13282-0.6901-0.39844-0.89844-0.26042-0.20833-0.83594-0.40885-1.7266-0.60156l-0.5-0.11719c-0.89063-0.1875-1.5339-0.47395-1.9297-0.85938-0.39584-0.39062-0.59375-0.92447-0.59375-1.6016,0-0.82291,0.29166-1.4583,0.875-1.9062,0.58333-0.44791,1.4114-0.67187,2.4844-0.67188,0.53125,0.000009,1.0312,0.03907,1.5,0.11719,0.46875,0.07813,0.90104,0.19532,1.2969,0.35156"/>
</g>
<g id="g2876" transform="translate(-92,-17.999962)">
<g id="redbox" transform="matrix(0.76,0,0,0.3759813,162.78,-228.61848)">
<path id="rect2056" fill="#abb400" d="m72.658,814.36,123.68,0c7.2895,0,13.158,11.862,13.158,26.597v66.806c0,14.735-5.8684,26.597-13.158,26.597h-123.68c-7.292-0.01-13.16-11.87-13.16-26.6v-66.806c0-14.735,5.8684-26.597,13.158-26.597z"/>
<path id="rect4036" fill="url(#pattern4042)" d="m72.658,814.36,123.68,0c7.2895,0,13.158,11.862,13.158,26.597v66.806c0,14.735-5.8684,26.597-13.158,26.597h-123.68c-7.292-0.01-13.16-11.87-13.16-26.6v-66.806c0-14.735,5.8684-26.597,13.158-26.597z"/>
<path id="rect4052" fill="url(#radialGradient4393)" d="m72.658,814.36,123.68,0c7.2895,0,13.158,11.862,13.158,26.597v66.806c0,14.735-5.8684,26.597-13.158,26.597h-123.68c-7.292-0.01-13.16-11.87-13.16-26.6v-66.806c0-14.735,5.8684-26.597,13.158-26.597z"/>
</g>
<g id="flowRoot2838" style="writing-mode:lr-tb;text-anchor:middle;text-align:start;" font-weight="normal" transform="translate(8.37,-7.2274832)" line-height="125%" font-stretch="normal" font-size="14px" font-variant="normal" font-style="normal" font-family="Interstate-Bold" fill="#FFF">
<path id="path3190" d="m227.23,92.748,6.4531,0,0,1.1621-5.0723,0,0,3.0215,4.8604,0,0,1.1621-4.8604,0,0,3.6982,5.1953,0,0,1.1621-6.5762,0,0-10.206"/>
<path id="path3192" d="m237.25,93.124,0,2.1738,2.5908,0,0,0.97754-2.5908,0,0,4.1563c0,0.62435,0.0843,1.0254,0.25293,1.2031,0.17318,0.17774,0.52181,0.2666,1.0459,0.2666h1.292v1.0527h-1.292c-0.9707,0-1.6406-0.18001-2.0098-0.54004-0.36915-0.36458-0.55372-1.0254-0.55372-1.9824v-4.1563h-0.92285v-0.97754h0.92285v-2.1738h1.2646"/>
<path id="path3194" d="m247.87,98.333,0,4.6211-1.2578,0,0-4.5801c0-0.7246-0.14128-1.2669-0.42383-1.627-0.28255-0.36002-0.70638-0.54003-1.2715-0.54004-0.67904,0.000007-1.2145,0.21648-1.6064,0.64941-0.39193,0.43295-0.58789,1.0231-0.58789,1.7705v4.3272h-1.2646v-10.637h1.2646v4.1699c0.30078-0.46028,0.65397-0.80435,1.0596-1.0322,0.41016-0.22786,0.88184-0.34179,1.415-0.3418,0.87955,0.000008,1.5449,0.27344,1.9961,0.82031,0.45116,0.54232,0.67675,1.3421,0.67675,2.3994"/>
<path id="path3196" d="m256.94,98.812,0,0.61524-5.7832,0c0.0547,0.86588,0.31445,1.5267,0.7793,1.9824,0.46939,0.45117,1.1211,0.67676,1.9551,0.67675,0.48306,0.00001,0.95018-0.0592,1.4014-0.17773,0.45572-0.11849,0.9069-0.29622,1.3535-0.5332v1.1894c-0.45118,0.19141-0.91375,0.33724-1.3877,0.4375-0.47396,0.10026-0.95476,0.15039-1.4424,0.15039-1.2214,0-2.1898-0.35547-2.9053-1.0664-0.71094-0.71093-1.0664-1.6725-1.0664-2.8848,0-1.2533,0.33724-2.2467,1.0117-2.9805,0.67903-0.73827,1.5928-1.1074,2.7412-1.1074,1.0299,0.000008,1.8434,0.33269,2.4404,0.99805,0.60155,0.66081,0.90234,1.5609,0.90234,2.7002m-1.2578-0.36914c-0.009-0.68815-0.2028-1.2373-0.58105-1.6475-0.37371-0.41015-0.87045-0.61523-1.4902-0.61524-0.70182,0.000007-1.2646,0.19825-1.6885,0.59473-0.41928,0.39649-0.66081,0.95476-0.72461,1.6748l4.4844-0.0068"/>
<path id="path3198" d="m263.41,96.474c-0.14129-0.08203-0.29623-0.14127-0.46485-0.17774-0.16407-0.04101-0.34636-0.06152-0.54687-0.06152-0.71094,0.000006-1.2578,0.23243-1.6406,0.69726-0.37826,0.46029-0.56738,1.1234-0.56738,1.9893v4.0332h-1.2646v-7.6563h1.2646v1.1895c0.26432-0.46484,0.60839-0.80891,1.0322-1.0322,0.42382-0.22786,0.93879-0.34179,1.5449-0.3418,0.0866,0.000008,0.18228,0.0068,0.28711,0.02051,0.10481,0.0091,0.22102,0.02507,0.34863,0.04785l0.007,1.292"/>
<path id="path3200" d="m270.86,98.333,0,4.6211-1.2578,0,0-4.5801c-0.00001-0.7246-0.14129-1.2669-0.42383-1.627-0.28256-0.36002-0.70639-0.54003-1.2715-0.54004-0.67904,0.000007-1.2145,0.21648-1.6064,0.64941-0.39193,0.43295-0.5879,1.0231-0.58789,1.7705v4.3272h-1.2646v-7.6563h1.2646v1.1895c0.30078-0.46028,0.65397-0.80435,1.0596-1.0322,0.41015-0.22786,0.88183-0.34179,1.415-0.3418,0.87955,0.000008,1.5449,0.27344,1.9961,0.82031,0.45116,0.54232,0.67675,1.3421,0.67676,2.3994"/>
<path id="path3202" d="m279.93,98.812,0,0.61524-5.7832,0c0.0547,0.86588,0.31445,1.5267,0.7793,1.9824,0.4694,0.45117,1.1211,0.67676,1.9551,0.67675,0.48307,0.00001,0.95019-0.0592,1.4014-0.17773,0.45572-0.11849,0.90689-0.29622,1.3535-0.5332v1.1894c-0.45118,0.19141-0.91374,0.33724-1.3877,0.4375-0.47397,0.10026-0.95476,0.15039-1.4424,0.15039-1.2214,0-2.1898-0.35547-2.9053-1.0664-0.71094-0.71093-1.0664-1.6725-1.0664-2.8848,0-1.2533,0.33724-2.2467,1.0117-2.9805,0.67904-0.73827,1.5928-1.1074,2.7412-1.1074,1.03,0.000008,1.8434,0.33269,2.4404,0.99805,0.60156,0.66081,0.90234,1.5609,0.90235,2.7002m-1.2578-0.36914c-0.009-0.68815-0.2028-1.2373-0.58105-1.6475-0.3737-0.41015-0.87045-0.61523-1.4902-0.61524-0.70183,0.000007-1.2647,0.19825-1.6885,0.59473-0.41927,0.39649-0.66081,0.95476-0.72461,1.6748l4.4844-0.0068"/>
<path id="path3204" d="m283.21,93.124,0,2.1738,2.5908,0,0,0.97754-2.5908,0,0,4.1563c-0.00001,0.62435,0.0843,1.0254,0.25293,1.2031,0.17317,0.17774,0.5218,0.2666,1.0459,0.2666h1.292v1.0527h-1.292c-0.97071,0-1.6406-0.18001-2.0098-0.54004-0.36914-0.36458-0.55371-1.0254-0.55371-1.9824v-4.1563h-0.92285v-0.97754h0.92285v-2.1738h1.2646"/>
<path id="path3206" d="m239.85,113.02,0,1.1895c-0.35547-0.18229-0.72462-0.31901-1.1074-0.41016-0.38282-0.0911-0.7793-0.13671-1.1895-0.13672-0.62435,0.00001-1.0938,0.0957-1.4082,0.28711-0.3099,0.19141-0.46484,0.47852-0.46484,0.86133,0,0.29167,0.11165,0.52181,0.33496,0.69043,0.2233,0.16407,0.6722,0.32129,1.3467,0.47168l0.43066,0.0957c0.89323,0.19141,1.5267,0.46257,1.9004,0.81348,0.37825,0.34636,0.56738,0.83171,0.56739,1.456-0.00001,0.71094-0.28256,1.2738-0.84766,1.6885-0.56055,0.41471-1.333,0.62207-2.3174,0.62207-0.41016,0-0.83855-0.041-1.2852-0.12305-0.44206-0.0775-0.90918-0.19596-1.4014-0.35547v-1.2988c0.46485,0.24153,0.92285,0.42383,1.374,0.54687,0.45117,0.11849,0.89778,0.17774,1.3398,0.17774,0.59244,0,1.0482-0.10026,1.3672-0.30079,0.319-0.20507,0.47851-0.49218,0.47851-0.86132,0-0.3418-0.11621-0.60384-0.34863-0.78614-0.22787-0.18228-0.73145-0.35774-1.5107-0.52636l-0.4375-0.10254c-0.7793-0.16406-1.3421-0.41471-1.6885-0.75196-0.34635-0.34179-0.51953-0.80891-0.51953-1.4014,0-0.72005,0.25521-1.276,0.76563-1.668,0.51041-0.39192,1.235-0.58788,2.1738-0.58789,0.46484,0.00001,0.90234,0.0342,1.3125,0.10254,0.41015,0.0684,0.78841,0.1709,1.1348,0.30761"/>
<path id="path3208" d="m241.54,112.8,1.2578,0,1.5723,5.9746,1.5654-5.9746,1.4834,0,1.5723,5.9746,1.5654-5.9746,1.2578,0-2.0029,7.6562-1.4834,0-1.6475-6.2754-1.6543,6.2754-1.4834,0-2.0029-7.6562"/>
<path id="path3210" d="m253.72,112.8,1.2578,0,0,7.6562-1.2578,0,0-7.6562m0-2.9805,1.2578,0,0,1.5928-1.2578,0,0-1.5928"/>
<path id="path3212" d="m258.85,110.62,0,2.1738,2.5908,0,0,0.97754-2.5908,0,0,4.1562c-0.00001,0.62435,0.0843,1.0254,0.25293,1.2031,0.17317,0.17774,0.5218,0.2666,1.0459,0.2666h1.292v1.0527h-1.292c-0.9707,0-1.6406-0.18001-2.0098-0.54004-0.36914-0.36458-0.55371-1.0254-0.55371-1.9824v-4.1562h-0.92285v-0.97754h0.92285v-2.1738h1.2646"/>
<path id="path3214" d="m268.61,113.09,0,1.1758c-0.35547-0.19595-0.71322-0.34179-1.0732-0.4375-0.35547-0.10025-0.7155-0.15038-1.0801-0.15039-0.81575,0.00001-1.4492,0.25978-1.9004,0.7793-0.45117,0.51498-0.67676,1.2396-0.67675,2.1738-0.00001,0.93425,0.22558,1.6611,0.67675,2.1807,0.45117,0.51498,1.0846,0.77247,1.9004,0.77246,0.36458,0.00001,0.72461-0.0478,1.0801-0.14355,0.36002-0.10026,0.71777-0.24837,1.0732-0.44434v1.1621c-0.35091,0.16407-0.7155,0.28711-1.0938,0.36914-0.3737,0.082-0.77246,0.12305-1.1963,0.12305-1.153,0-2.069-0.3623-2.748-1.0869-0.67904-0.72461-1.0186-1.7022-1.0186-2.9326,0-1.2487,0.3418-2.2308,1.0254-2.9463,0.68815-0.71549,1.6292-1.0732,2.8232-1.0732,0.38736,0.00001,0.76562,0.041,1.1348,0.12304,0.36914,0.0775,0.72688,0.19598,1.0732,0.35547"/>
<path id="path3216" d="m277.15,115.83,0,4.6211-1.2578,0,0-4.5801c-0.00001-0.7246-0.14128-1.2669-0.42383-1.627-0.28256-0.36002-0.70639-0.54004-1.2715-0.54004-0.67904,0-1.2145,0.21648-1.6064,0.64941-0.39193,0.43295-0.58789,1.0231-0.58789,1.7705v4.3272h-1.2646v-10.637h1.2646v4.1699c0.30078-0.46028,0.65397-0.80435,1.0596-1.0322,0.41015-0.22785,0.88183-0.34178,1.415-0.34179,0.87955,0.00001,1.5449,0.27344,1.9961,0.82031,0.45117,0.54232,0.67675,1.3421,0.67676,2.3994"/>
</g>
</g>
<path id="path2846" style="marker-start:url(#TriangleInM);marker-end:none;" d="m173,44.308,0,14.858" stroke="#5c5c4f" stroke-width="2" fill="none"/>
<g id="flowRoot2848" style="writing-mode:lr-tb;text-anchor:middle;text-align:start;" font-weight="normal" transform="translate(29.37,-21.838612)" line-height="125%" font-stretch="normal" font-size="12px" font-variant="normal" font-style="normal" font-family="Interstate-Bold" fill="#777d00">
<path id="path3219" style="text-align:start;" d="m208.36,93.186,0,3.2871,1.4883,0c0.55078,0.000004,0.97656-0.14257,1.2773-0.42774,0.30078-0.28515,0.45117-0.6914,0.45117-1.2188,0-0.52343-0.15039-0.92773-0.45117-1.2129-0.30078-0.28515-0.72656-0.42773-1.2773-0.42774h-1.4883m-1.1836-0.97266,2.6719,0c0.98046,0.000009,1.7207,0.22266,2.2207,0.66797,0.5039,0.44141,0.75586,1.0899,0.75586,1.9453,0,0.86329-0.25196,1.5156-0.75586,1.957-0.5,0.44141-1.2402,0.66211-2.2207,0.66211h-1.4883v3.5156h-1.1836v-8.748"/>
<path id="path3221" style="text-align:start;" d="m214.05,98.371,0-3.9727,1.0781,0,0,3.9316c-0.00001,0.6211,0.12109,1.0879,0.36328,1.4004,0.24218,0.3086,0.60546,0.46289,1.0898,0.46289,0.58203,0,1.041-0.18554,1.377-0.55664,0.33984-0.37109,0.50976-0.87695,0.50977-1.5176v-3.7207h1.0781v6.5625h-1.0781v-1.0078c-0.26172,0.39844-0.56641,0.69531-0.91406,0.89062-0.34376,0.19141-0.74415,0.28711-1.2012,0.28711-0.75391,0-1.3262-0.23437-1.7168-0.70312-0.39063-0.46875-0.58594-1.1543-0.58594-2.0566m2.7129-4.1309"/>
<path id="path3223" style="text-align:start;" d="m226.49,97.686c0-0.79296-0.16406-1.4141-0.49218-1.8633-0.32423-0.45312-0.77149-0.67968-1.3418-0.67969-0.57032,0.000005-1.0195,0.22657-1.3477,0.67969-0.32422,0.44922-0.48633,1.0703-0.48632,1.8633-0.00001,0.79297,0.1621,1.416,0.48632,1.8691,0.32813,0.44922,0.77734,0.67383,1.3477,0.67383,0.57031,0,1.0176-0.22461,1.3418-0.67383,0.32812-0.45312,0.49218-1.0762,0.49218-1.8691m-3.668-2.291c0.22656-0.39062,0.51171-0.67968,0.85546-0.86719,0.34766-0.1914,0.76172-0.2871,1.2422-0.28711,0.79687,0.000007,1.4434,0.31641,1.9394,0.94922,0.5,0.63282,0.75,1.4648,0.75,2.4961s-0.25,1.8633-0.75,2.4961c-0.49609,0.63282-1.1426,0.94922-1.9394,0.94922-0.48047,0-0.89453-0.0937-1.2422-0.28125-0.34375-0.1914-0.6289-0.48242-0.85546-0.87304v0.98438h-1.084v-9.1172h1.084v3.5508"/>
<path id="path3225" style="text-align:start;" d="m229.4,91.844,1.0781,0,0,9.1172-1.0781,0,0-9.1172"/>
<path id="path3227" style="text-align:start;" d="m232.72,94.398,1.0781,0,0,6.5625-1.0781,0,0-6.5625m0-2.5547,1.0781,0,0,1.3652-1.0781,0,0-1.3652"/>
<path id="path3229" style="text-align:start;" d="m240.78,94.65,0,1.0078c-0.30469-0.16796-0.61133-0.29296-0.91992-0.375-0.30469-0.08593-0.61329-0.1289-0.92578-0.12891-0.69922,0.000006-1.2422,0.22266-1.6289,0.66797-0.38672,0.44141-0.58008,1.0625-0.58008,1.8633,0,0.80078,0.19336,1.4238,0.58008,1.8691,0.38672,0.44141,0.92969,0.66211,1.6289,0.66211,0.31249,0,0.62109-0.041,0.92578-0.12305,0.30859-0.0859,0.61523-0.21289,0.91992-0.38086v0.9961c-0.30079,0.14062-0.61329,0.24609-0.9375,0.3164-0.32032,0.0703-0.66211,0.10547-1.0254,0.10547-0.98828,0-1.7734-0.31054-2.3555-0.93164-0.58203-0.62109-0.87305-1.459-0.87305-2.5137,0-1.0703,0.29297-1.9121,0.87891-2.5254,0.58984-0.61328,1.3965-0.91992,2.4199-0.91992,0.33203,0.000007,0.65625,0.03516,0.97266,0.10547,0.3164,0.06641,0.62304,0.16798,0.91992,0.30469"/>
<path id="path3231" style="text-align:start;" d="m207.18,107.21,1.5938,0,3.8789,7.3184,0-7.3184,1.1484,0,0,8.748-1.5938,0-3.8789-7.3184,0,7.3184-1.1484,0,0-8.748"/>
<path id="path3233" style="text-align:start;" d="m221.72,112.41,0,0.52734-4.957,0c0.0469,0.74219,0.26953,1.3086,0.66797,1.6992,0.40234,0.38672,0.96093,0.58008,1.6758,0.58008,0.41406,0,0.81445-0.0508,1.2012-0.15234,0.39062-0.10157,0.77734-0.25391,1.1602-0.45704v1.0195c-0.38672,0.16406-0.78321,0.28906-1.1894,0.375-0.40626,0.0859-0.81837,0.1289-1.2363,0.1289-1.0469,0-1.877-0.30469-2.4902-0.91406-0.60937-0.60937-0.91406-1.4336-0.91406-2.4727,0-1.0742,0.28906-1.9258,0.86719-2.5547,0.58203-0.63281,1.3652-0.94922,2.3496-0.94922,0.88281,0,1.5801,0.28516,2.0918,0.85547,0.51561,0.56641,0.77343,1.3379,0.77343,2.3144m-1.0781-0.31641c-0.008-0.58984-0.17384-1.0605-0.49805-1.4121-0.32032-0.35155-0.7461-0.52733-1.2773-0.52734-0.60157,0.00001-1.084,0.16993-1.4473,0.50976-0.35938,0.33985-0.56641,0.81837-0.62109,1.4356l3.8438-0.006"/>
<path id="path3235" style="text-align:start;" d="m224.53,107.54,0,1.8633,2.2207,0,0,0.83789-2.2207,0,0,3.5625c0,0.53516,0.0723,0.87891,0.2168,1.0312,0.14843,0.15235,0.44726,0.22852,0.89648,0.22852h1.1074v0.90234h-1.1074c-0.83203,0-1.4062-0.1543-1.7226-0.46289-0.31641-0.3125-0.47461-0.87891-0.47461-1.6992v-3.5625h-0.79102v-0.83789h0.79102v-1.8633h1.084"/>
<path id="path3237" style="text-align:start;" d="m227.55,109.4,1.0781,0,1.3476,5.1211,1.3418-5.1211,1.2715,0,1.3477,5.1211,1.3418-5.1211,1.0781,0-1.7168,6.5625-1.2715,0-1.4121-5.3789-1.418,5.3789-1.2715,0-1.7168-6.5625"/>
<path id="path3239" style="text-align:start;" d="m240.54,110.15c-0.57813,0.00001-1.0352,0.22657-1.3711,0.67969-0.33594,0.44922-0.50391,1.0664-0.5039,1.8516-0.00001,0.78516,0.16601,1.4043,0.49804,1.8574,0.33594,0.44922,0.79492,0.67383,1.377,0.67383,0.57421,0,1.0293-0.22656,1.3652-0.67969,0.33593-0.45312,0.5039-1.0703,0.50391-1.8516-0.00001-0.77734-0.16798-1.3926-0.50391-1.8457-0.33594-0.45703-0.79102-0.68554-1.3652-0.68555m0-0.91406c0.93749,0,1.6738,0.30469,2.209,0.91406,0.53515,0.60938,0.80273,1.4531,0.80273,2.5312,0,1.0742-0.26758,1.918-0.80273,2.5312-0.53516,0.60937-1.2715,0.91406-2.209,0.91406-0.94141,0-1.6797-0.30469-2.2148-0.91406-0.53125-0.61328-0.79687-1.457-0.79687-2.5312,0-1.0781,0.26562-1.9219,0.79687-2.5312,0.53516-0.60937,1.2734-0.91406,2.2148-0.91406"/>
<path id="path3241" style="text-align:start;" d="m249.14,110.41c-0.1211-0.0703-0.25391-0.12109-0.39844-0.15234-0.14063-0.0352-0.29688-0.0527-0.46875-0.0527-0.60938,0.00001-1.0781,0.19923-1.4062,0.59766-0.32422,0.39454-0.48633,0.9629-0.48633,1.7051v3.457h-1.084v-6.5625h1.084v1.0195c0.22656-0.39843,0.52148-0.69335,0.88477-0.88476,0.36328-0.19531,0.80468-0.29297,1.3242-0.29297,0.0742,0,0.15624,0.006,0.24609,0.0176,0.0898,0.008,0.18945,0.0215,0.29883,0.041l0.006,1.1074"/>
<path id="path3243" style="text-align:start;" d="m250.24,106.84,1.084,0,0,5.3848,3.2168-2.8301,1.377,0-3.4805,3.0703,3.627,3.4922-1.4062,0-3.334-3.2051,0,3.2051-1.084,0,0-9.1172"/>
</g>
<g id="g2911" transform="translate(133,128.15079)">
<g id="g2913" transform="matrix(0.76,0,0,0.4593146,162.78,-301.482)">
<path id="rect2915" fill="#5c5c4f" d="m72.658,814.36,123.68,0c7.2895,0,13.158,9.7101,13.158,21.772v76.457c0,12.061-5.8684,21.772-13.158,21.772h-123.68c-7.292,0-13.16-9.71-13.16-21.77v-76.457c0-12.061,5.8684-21.772,13.158-21.772z"/>
<path id="rect2917" fill="url(#pattern5164)" d="m72.658,814.36,123.68,0c7.2895,0,13.158,9.7101,13.158,21.772v76.457c0,12.061-5.8684,21.772-13.158,21.772h-123.68c-7.292,0-13.16-9.71-13.16-21.77v-76.457c0-12.061,5.8684-21.772,13.158-21.772z"/>
<path id="rect2919" fill="url(#radialGradient2931)" d="m72.658,814.36,123.68,0c7.2895,0,13.158,9.7101,13.158,21.772v76.457c0,12.061-5.8684,21.772-13.158,21.772h-123.68c-7.292,0-13.16-9.71-13.16-21.77v-76.457c0-12.061,5.8684-21.772,13.158-21.772z"/>
</g>
<g id="flowRoot2921" style="writing-mode:lr-tb;text-anchor:middle;text-align:start;" font-weight="normal" transform="translate(8.37,-7.2274832)" line-height="125%" font-stretch="normal" font-size="14px" font-variant="normal" font-style="normal" font-family="Interstate-Bold" fill="#FFF">
<path id="path3249" d="m228.16,92.748,1.8594,0,4.5254,8.5381,0-8.5381,1.3398,0,0,10.206-1.8594,0-4.5254-8.5381,0,8.5381-1.3398,0,0-10.206"/>
<path id="path3251" d="m245.12,98.812,0,0.61524-5.7832,0c0.0547,0.86588,0.31445,1.5267,0.7793,1.9824,0.46939,0.45117,1.1211,0.67676,1.9551,0.67675,0.48306,0.00001,0.95018-0.0592,1.4014-0.17773,0.45572-0.11849,0.9069-0.29622,1.3535-0.5332v1.1894c-0.45118,0.19141-0.91375,0.33724-1.3877,0.4375-0.47396,0.10026-0.95476,0.15039-1.4424,0.15039-1.2214,0-2.1898-0.35547-2.9053-1.0664-0.71094-0.71093-1.0664-1.6725-1.0664-2.8848,0-1.2533,0.33724-2.2467,1.0117-2.9805,0.67903-0.73827,1.5928-1.1074,2.7412-1.1074,1.0299,0.000008,1.8434,0.33269,2.4404,0.99805,0.60155,0.66081,0.90234,1.5609,0.90234,2.7002m-1.2578-0.36914c-0.009-0.68815-0.2028-1.2373-0.58105-1.6475-0.37371-0.41015-0.87045-0.61523-1.4902-0.61524-0.70182,0.000007-1.2646,0.19825-1.6885,0.59473-0.41928,0.39649-0.66081,0.95476-0.72461,1.6748l4.4844-0.0068"/>
<path id="path3253" d="m248.41,93.124,0,2.1738,2.5908,0,0,0.97754-2.5908,0,0,4.1563c0,0.62435,0.0843,1.0254,0.25293,1.2031,0.17318,0.17774,0.52181,0.2666,1.0459,0.2666h1.292v1.0527h-1.292c-0.9707,0-1.6406-0.18001-2.0098-0.54004-0.36915-0.36458-0.55372-1.0254-0.55372-1.9824v-4.1563h-0.92285v-0.97754h0.92285v-2.1738h1.2646"/>
<path id="path3255" d="m251.93,95.298,1.2578,0,1.5723,5.9746,1.5654-5.9746,1.4834,0,1.5723,5.9746,1.5654-5.9746,1.2578,0-2.0029,7.6563-1.4834,0-1.6475-6.2754-1.6543,6.2754-1.4834,0-2.0029-7.6563"/>
<path id="path3257" d="m267.08,96.18c-0.67448,0.000007-1.2077,0.26433-1.5996,0.79297-0.39193,0.52409-0.5879,1.2441-0.5879,2.1602,0,0.91602,0.19369,1.6384,0.58106,2.167,0.39192,0.52409,0.9274,0.78614,1.6064,0.78613,0.66992,0.00001,1.2008-0.26432,1.5928-0.79296,0.39192-0.52865,0.58788-1.2487,0.58789-2.1602-0.00001-0.9069-0.19597-1.6247-0.58789-2.1533-0.39193-0.5332-0.92286-0.7998-1.5928-0.7998m0-1.0664c1.0938,0.000008,1.9528,0.35548,2.5772,1.0664,0.62434,0.71094,0.93652,1.6953,0.93653,2.9531-0.00001,1.2533-0.31219,2.2376-0.93653,2.9531-0.62435,0.71094-1.4834,1.0664-2.5772,1.0664-1.0983,0-1.9596-0.35547-2.584-1.0664-0.61979-0.71549-0.92969-1.6999-0.92969-2.9531,0-1.2578,0.3099-2.2422,0.92969-2.9531,0.62435-0.71093,1.4857-1.0664,2.584-1.0664"/>
<path id="path3259" d="m277.11,96.474c-0.14128-0.08203-0.29622-0.14127-0.46484-0.17774-0.16407-0.04101-0.34636-0.06152-0.54687-0.06152-0.71095,0.000006-1.2578,0.23243-1.6406,0.69726-0.37826,0.46029-0.56738,1.1234-0.56738,1.9893v4.0332h-1.2646v-7.6563h1.2646v1.1895c0.26432-0.46484,0.60839-0.80891,1.0322-1.0322,0.42383-0.22786,0.9388-0.34179,1.5449-0.3418,0.0866,0.000008,0.18228,0.0068,0.28711,0.02051,0.10481,0.0091,0.22102,0.02507,0.34863,0.04785l0.007,1.292"/>
<path id="path3261" d="m278.39,92.318,1.2646,0,0,6.2822,3.7529-3.3018,1.6064,0-4.0605,3.582,4.2314,4.0742-1.6406,0-3.8896-3.7393,0,3.7393-1.2646,0,0-10.637"/>
<path id="path3263" d="m212.33,119.31,0,4.0606-1.2646,0,0-10.568,1.2646,0,0,1.1621c0.26432-0.45572,0.597-0.79296,0.99804-1.0117,0.4056-0.2233,0.88867-0.33495,1.4492-0.33496,0.92968,0.00001,1.6839,0.36915,2.2627,1.1074,0.58332,0.73829,0.87499,1.709,0.875,2.9121-0.00001,1.2031-0.29168,2.1738-0.875,2.9121-0.57879,0.73828-1.333,1.1074-2.2627,1.1074-0.56055,0-1.0436-0.10937-1.4492-0.32812-0.40104-0.22331-0.73372-0.56283-0.99804-1.0186m4.2793-2.6728c0-0.92513-0.19141-1.6497-0.57422-2.1738-0.37826-0.52864-0.90007-0.79296-1.5654-0.79297-0.66536,0.00001-1.1894,0.26433-1.5723,0.79297-0.37826,0.5241-0.56739,1.2487-0.56738,2.1738-0.00001,0.92513,0.18912,1.652,0.56738,2.1807,0.38281,0.52409,0.9069,0.78614,1.5723,0.78614,0.66536,0,1.1872-0.26205,1.5654-0.78614,0.38281-0.52864,0.57422-1.2555,0.57422-2.1807"/>
<path id="path3265" d="m222.96,113.68c-0.67448,0.00001-1.2077,0.26433-1.5996,0.79297-0.39192,0.5241-0.58789,1.2442-0.58789,2.1602,0,0.91602,0.19369,1.6384,0.58106,2.167,0.39192,0.52409,0.9274,0.78614,1.6064,0.78613,0.66992,0.00001,1.2008-0.26432,1.5928-0.79296,0.39192-0.52865,0.58788-1.2487,0.58789-2.1602-0.00001-0.9069-0.19597-1.6247-0.58789-2.1533-0.39194-0.5332-0.92286-0.7998-1.5928-0.79981m0-1.0664c1.0938,0.00001,1.9528,0.35547,2.5772,1.0664,0.62434,0.71095,0.93652,1.6953,0.93653,2.9531-0.00001,1.2533-0.31219,2.2376-0.93653,2.9531-0.62435,0.71094-1.4834,1.0664-2.5772,1.0664-1.0983,0-1.9596-0.35547-2.584-1.0664-0.61979-0.71549-0.92969-1.6999-0.92969-2.9531,0-1.2578,0.3099-2.2422,0.92969-2.9531,0.62435-0.71093,1.4857-1.0664,2.584-1.0664"/>
<path id="path3267" d="m227.82,112.8,1.2578,0,1.5723,5.9746,1.5654-5.9746,1.4834,0,1.5723,5.9746,1.5654-5.9746,1.2578,0-2.0029,7.6562-1.4834,0-1.6475-6.2754-1.6543,6.2754-1.4834,0-2.0029-7.6562"/>
<path id="path3269" d="m246.56,116.31,0,0.61523-5.7832,0c0.0547,0.86589,0.31445,1.5267,0.77929,1.9824,0.4694,0.45117,1.1211,0.67676,1.9551,0.67675,0.48307,0.00001,0.95019-0.0592,1.4014-0.17773,0.45572-0.11849,0.90689-0.29622,1.3535-0.5332v1.1894c-0.45117,0.19141-0.91374,0.33724-1.3877,0.4375s-0.95476,0.15039-1.4424,0.15039c-1.2214,0-2.1898-0.35547-2.9053-1.0664-0.71094-0.71093-1.0664-1.6725-1.0664-2.8848,0-1.2532,0.33724-2.2467,1.0117-2.9805,0.67903-0.73827,1.5928-1.1074,2.7412-1.1074,1.0299,0.00001,1.8434,0.33269,2.4404,0.99804,0.60155,0.66082,0.90233,1.5609,0.90234,2.7002m-1.2578-0.36914c-0.009-0.68815-0.20281-1.2373-0.58106-1.6475-0.3737-0.41015-0.87044-0.61523-1.4902-0.61524-0.70183,0.00001-1.2646,0.19825-1.6885,0.59473-0.41927,0.39649-0.66081,0.95476-0.72461,1.6748l4.4844-0.007"/>
<path id="path3271" d="m253.03,113.97c-0.14128-0.082-0.29623-0.14127-0.46484-0.17773-0.16407-0.041-0.34636-0.0615-0.54688-0.0615-0.71094,0.00001-1.2578,0.23243-1.6406,0.69727-0.37826,0.46029-0.56739,1.1234-0.56738,1.9893v4.0332h-1.2646v-7.6562h1.2646v1.1894c0.26432-0.46484,0.60839-0.80891,1.0322-1.0322,0.42383-0.22785,0.9388-0.34178,1.5449-0.34179,0.0866,0.00001,0.18229,0.007,0.28711,0.0205,0.10482,0.009,0.22103,0.0251,0.34864,0.0478l0.007,1.292"/>
<path id="path3273" d="m263.7,113.02,0,1.1895c-0.35547-0.18229-0.72461-0.31901-1.1074-0.41016-0.38282-0.0911-0.7793-0.13671-1.1894-0.13672-0.62436,0.00001-1.0938,0.0957-1.4082,0.28711-0.30989,0.19141-0.46484,0.47852-0.46484,0.86133,0,0.29167,0.11165,0.52181,0.33496,0.69043,0.22331,0.16407,0.6722,0.32129,1.3467,0.47168l0.43066,0.0957c0.89323,0.19141,1.5267,0.46257,1.9004,0.81348,0.37825,0.34636,0.56738,0.83171,0.56739,1.456-0.00001,0.71094-0.28256,1.2738-0.84766,1.6885-0.56055,0.41471-1.333,0.62207-2.3174,0.62207-0.41016,0-0.83855-0.041-1.2852-0.12305-0.44206-0.0775-0.90918-0.19596-1.4014-0.35547v-1.2988c0.46484,0.24153,0.92285,0.42383,1.374,0.54687,0.45117,0.11849,0.89778,0.17774,1.3398,0.17774,0.59245,0,1.0482-0.10026,1.3672-0.30079,0.31901-0.20507,0.47851-0.49218,0.47852-0.86132-0.00001-0.3418-0.11622-0.60384-0.34864-0.78614-0.22787-0.18228-0.73145-0.35774-1.5107-0.52636l-0.4375-0.10254c-0.7793-0.16406-1.3421-0.41471-1.6885-0.75196-0.34635-0.34179-0.51953-0.80891-0.51953-1.4014,0-0.72005,0.25521-1.276,0.76563-1.668,0.51041-0.39192,1.235-0.58788,2.1738-0.58789,0.46484,0.00001,0.90234,0.0342,1.3125,0.10254,0.41015,0.0684,0.7884,0.1709,1.1348,0.30761"/>
<path id="path3275" d="m265.39,112.8,1.2578,0,1.5723,5.9746,1.5654-5.9746,1.4834,0,1.5723,5.9746,1.5654-5.9746,1.2578,0-2.0029,7.6562-1.4834,0-1.6475-6.2754-1.6543,6.2754-1.4834,0-2.0029-7.6562"/>
<path id="path3277" d="m277.58,112.8,1.2578,0,0,7.6562-1.2578,0,0-7.6562m0-2.9805,1.2578,0,0,1.5928-1.2578,0,0-1.5928"/>
<path id="path3279" d="m282.71,110.62,0,2.1738,2.5908,0,0,0.97754-2.5908,0,0,4.1562c0,0.62435,0.0843,1.0254,0.25293,1.2031,0.17317,0.17774,0.5218,0.2666,1.0459,0.2666h1.292v1.0527h-1.292c-0.97071,0-1.6406-0.18001-2.0098-0.54004-0.36914-0.36458-0.55371-1.0254-0.55371-1.9824v-4.1562h-0.92285v-0.97754h0.92285v-2.1738h1.2646"/>
<path id="path3281" d="m292.47,113.09,0,1.1758c-0.35548-0.19595-0.71323-0.34179-1.0732-0.4375-0.35547-0.10025-0.7155-0.15038-1.0801-0.15039-0.81576,0.00001-1.4492,0.25978-1.9004,0.7793-0.45118,0.51498-0.67676,1.2396-0.67676,2.1738,0,0.93425,0.22558,1.6611,0.67676,2.1807,0.45116,0.51498,1.0846,0.77247,1.9004,0.77246,0.36457,0.00001,0.7246-0.0478,1.0801-0.14355,0.36002-0.10026,0.71777-0.24837,1.0732-0.44434v1.1621c-0.35092,0.16407-0.7155,0.28711-1.0938,0.36914-0.37371,0.082-0.77247,0.12305-1.1963,0.12305-1.153,0-2.069-0.3623-2.748-1.0869-0.67904-0.72461-1.0186-1.7022-1.0186-2.9326,0-1.2487,0.34179-2.2308,1.0254-2.9463,0.68815-0.71549,1.6292-1.0732,2.8232-1.0732,0.38736,0.00001,0.76562,0.041,1.1348,0.12304,0.36914,0.0775,0.72689,0.19598,1.0732,0.35547"/>
<path id="path3283" d="m301.01,115.83,0,4.6211-1.2578,0,0-4.5801c-0.00001-0.7246-0.14128-1.2669-0.42383-1.627-0.28256-0.36002-0.70638-0.54004-1.2715-0.54004-0.67904,0-1.2145,0.21648-1.6064,0.64941-0.39193,0.43295-0.58789,1.0231-0.58789,1.7705v4.3272h-1.2646v-10.637h1.2646v4.1699c0.30078-0.46028,0.65397-0.80435,1.0596-1.0322,0.41015-0.22785,0.88183-0.34178,1.415-0.34179,0.87955,0.00001,1.5449,0.27344,1.9961,0.82031,0.45117,0.54232,0.67675,1.3421,0.67676,2.3994"/>
</g>
</g>
<g id="g4074" stroke-width="2" fill="none" transform="translate(-92,-17.999962)">
<path id="path4048" style="marker-start:none;marker-end:none;" d="m402.72,304.58,0-95.364" stroke="#abb400"/>
<g id="g4064" transform="matrix(-1,0,0,1,529.4386,0)" stroke="#abb400">
<path id="path4066" style="marker-start:none;marker-end:none;" d="m127.72,304.58c0-95.463,67-65.414,67-95.364"/>
<path id="path4068" style="marker-start:none;marker-end:none;" d="m127.72,304.58c0-89.718,134-53.236,134-95.364"/>
<path id="path4070" style="marker-start:none;marker-end:none;" d="m127.72,304.58c0-67.154,205-51.342,205-95.364"/>
<path id="path4072" style="marker-start:none;marker-end:none;" d="m127.72,304.58c0-48.495,274-37.478,274-95.364"/>
</g>
<path id="path2337" style="marker-start:none;marker-end:none;" d="m406.96,304.58c0-43.715,5.2838-57.18,26.163-57.18" stroke="#5c5c4f"/>
<path id="path3314" style="marker-start:none;marker-end:none;" d="m350.23,325.88-129.24,0" stroke="#5c5c4f"/>
</g>
<g id="flowRoot3999" style="writing-mode:lr-tb;text-anchor:middle;text-align:start;" font-weight="normal" transform="translate(135.87,49.161388)" line-height="125%" font-stretch="normal" font-size="12px" font-variant="normal" font-style="normal" font-family="Interstate-Bold" fill="#4e376b">
<path id="path3286" style="text-align:start;" d="m213.73,92.887,0,1.248c-0.39845-0.37109-0.82423-0.64843-1.2774-0.83203-0.44922-0.18359-0.92774-0.27538-1.4356-0.27539-1,0.000008-1.7656,0.30665-2.2969,0.91992-0.53125,0.60938-0.79688,1.4922-0.79688,2.6484,0,1.1523,0.26563,2.0352,0.79688,2.6484,0.53125,0.60938,1.2969,0.91407,2.2969,0.91407,0.50781,0,0.98633-0.0918,1.4356-0.2754,0.45312-0.18359,0.8789-0.46094,1.2774-0.83203v1.2363c-0.41407,0.28125-0.85353,0.49219-1.3184,0.63281-0.46095,0.14063-0.94923,0.21094-1.4648,0.21094-1.3242,0-2.3672-0.40429-3.1289-1.2129-0.76172-0.8125-1.1426-1.9199-1.1426-3.3223,0-1.4062,0.38086-2.5137,1.1426-3.3223,0.76171-0.81249,1.8047-1.2187,3.1289-1.2188,0.52343,0.000009,1.0156,0.07032,1.4766,0.21094,0.46484,0.13673,0.90039,0.34376,1.3066,0.62109"/>
<path id="path3288" style="text-align:start;" d="m215.52,91.844,1.0781,0,0,9.1172-1.0781,0,0-9.1172"/>
<path id="path3290" style="text-align:start;" d="m218.74,98.371,0-3.9727,1.0781,0,0,3.9316c-0.00001,0.6211,0.12109,1.0879,0.36328,1.4004,0.24218,0.3086,0.60546,0.46289,1.0898,0.46289,0.58203,0,1.041-0.18554,1.377-0.55664,0.33984-0.37109,0.50976-0.87695,0.50977-1.5176v-3.7207h1.0781v6.5625h-1.0781v-1.0078c-0.26172,0.39844-0.56641,0.69531-0.91406,0.89062-0.34376,0.19141-0.74415,0.28711-1.2012,0.28711-0.75391,0-1.3262-0.23437-1.7168-0.70312-0.39063-0.46875-0.58594-1.1543-0.58594-2.0566m2.7129-4.1309"/>
<path id="path3292" style="text-align:start;" d="m230.65,94.592,0,1.0195c-0.30469-0.15624-0.6211-0.27343-0.94922-0.35156-0.32813-0.07812-0.66797-0.11718-1.0195-0.11719-0.53516,0.000005-0.9375,0.08204-1.207,0.24609-0.26563,0.16407-0.39844,0.41016-0.39844,0.73828,0,0.25,0.0957,0.44727,0.28711,0.5918,0.19141,0.14063,0.57617,0.2754,1.1543,0.4043l0.36914,0.08203c0.76562,0.16407,1.3086,0.39649,1.6289,0.69726,0.32422,0.29688,0.48633,0.71289,0.48633,1.248,0,0.60938-0.24219,1.0918-0.72656,1.4473-0.48047,0.35547-1.1426,0.5332-1.9863,0.5332-0.35156,0-0.71875-0.0352-1.1016-0.10547-0.37891-0.0664-0.7793-0.16797-1.2012-0.30468v-1.1133c0.39843,0.20703,0.79101,0.36328,1.1777,0.46875,0.38672,0.10157,0.76953,0.15235,1.1484,0.15235,0.50781,0,0.89843-0.0859,1.1719-0.25781,0.27344-0.17578,0.41016-0.42187,0.41016-0.73828,0-0.29297-0.0996-0.51758-0.29883-0.67383-0.19531-0.15625-0.62695-0.30664-1.2949-0.45117l-0.375-0.08789c-0.66797-0.14062-1.1504-0.35547-1.4473-0.64453-0.29688-0.29296-0.44532-0.69336-0.44532-1.2012,0-0.61718,0.21875-1.0937,0.65625-1.4297,0.4375-0.33593,1.0586-0.5039,1.8633-0.50391,0.39844,0.000007,0.77344,0.0293,1.125,0.08789,0.35156,0.0586,0.67578,0.14649,0.97266,0.26367"/>
<path id="path3294" style="text-align:start;" d="m233.79,92.535,0,1.8633,2.2207,0,0,0.83789-2.2207,0,0,3.5625c-0.00001,0.53516,0.0723,0.87891,0.21679,1.0312,0.14844,0.15234,0.44727,0.22852,0.89649,0.22852h1.1074v0.90234h-1.1074c-0.83204,0-1.4063-0.1543-1.7227-0.46289-0.31641-0.3125-0.47461-0.87891-0.47461-1.6992v-3.5625h-0.79101v-0.83789h0.79101v-1.8633h1.084"/>
<path id="path3296" style="text-align:start;" d="m243.05,97.41,0,0.52734-4.957,0c0.0469,0.74219,0.26953,1.3086,0.66797,1.6992,0.40234,0.38672,0.96093,0.58008,1.6758,0.58008,0.41405,0,0.81445-0.0508,1.2012-0.15234,0.39062-0.10157,0.77734-0.25391,1.1602-0.45704v1.0195c-0.38672,0.16406-0.7832,0.28906-1.1894,0.375-0.40625,0.0859-0.81836,0.1289-1.2363,0.1289-1.0469,0-1.877-0.30469-2.4902-0.91406-0.60938-0.60937-0.91406-1.4336-0.91406-2.4727,0-1.0742,0.28906-1.9258,0.86718-2.5547,0.58203-0.63281,1.3652-0.94921,2.3496-0.94922,0.88281,0.000007,1.5801,0.28516,2.0918,0.85547,0.51562,0.56641,0.77343,1.3379,0.77344,2.3145m-1.0781-0.31641c-0.008-0.58984-0.17383-1.0605-0.49804-1.4121-0.32032-0.35156-0.7461-0.52734-1.2774-0.52734-0.60156,0.000006-1.084,0.16993-1.4473,0.50977-0.35938,0.33985-0.56641,0.81836-0.6211,1.4355l3.8438-0.0059"/>
<path id="path3298" style="text-align:start;" d="m248.6,95.406c-0.1211-0.07031-0.25391-0.12109-0.39844-0.15234-0.14063-0.03515-0.29688-0.05273-0.46875-0.05273-0.60938,0.000006-1.0781,0.19922-1.4062,0.59766-0.32422,0.39454-0.48633,0.96289-0.48633,1.7051v3.457h-1.084v-6.5625h1.084v1.0195c0.22656-0.39843,0.52148-0.69335,0.88477-0.88476,0.36327-0.19531,0.80468-0.29296,1.3242-0.29297,0.0742,0.000007,0.15625,0.0059,0.2461,0.01758,0.0898,0.0078,0.18945,0.02149,0.29883,0.04102l0.006,1.1074"/>
<path id="path3300" style="text-align:start;" d="m259.02,97,0,3.9609-1.0781,0,0-3.9258c-0.00001-0.62109-0.1211-1.0859-0.36328-1.3945-0.24219-0.30859-0.60547-0.46288-1.0898-0.46289-0.58203,0.000006-1.041,0.18555-1.377,0.55664-0.33594,0.3711-0.50391,0.87696-0.5039,1.5176v3.709h-1.084v-6.5625h1.084v1.0195c0.25781-0.39452,0.56054-0.68945,0.9082-0.88476,0.35156-0.19531,0.75585-0.29296,1.2129-0.29297,0.7539,0.000007,1.3242,0.23438,1.7109,0.70312,0.38671,0.46485,0.58007,1.1504,0.58007,2.0566"/>
<path id="path3302" style="text-align:start;" d="m263.72,95.154c-0.57812,0.000006-1.0352,0.22657-1.3711,0.67969-0.33594,0.44922-0.50391,1.0664-0.50391,1.8516,0,0.78516,0.16602,1.4043,0.49805,1.8574,0.33593,0.44922,0.79492,0.67383,1.377,0.67383,0.57422,0,1.0293-0.22656,1.3652-0.67969,0.33593-0.45312,0.5039-1.0703,0.5039-1.8516,0-0.77734-0.16797-1.3926-0.5039-1.8457-0.33594-0.45702-0.79102-0.68554-1.3652-0.68555m0-0.91406c0.9375,0.000007,1.6738,0.30469,2.209,0.91406,0.53515,0.60938,0.80273,1.4531,0.80273,2.5312,0,1.0742-0.26758,1.918-0.80273,2.5313-0.53516,0.60937-1.2715,0.91406-2.209,0.91406-0.94141,0-1.6797-0.30469-2.2148-0.91406-0.53125-0.61328-0.79688-1.457-0.79688-2.5313,0-1.0781,0.26563-1.9219,0.79688-2.5312,0.53515-0.60937,1.2734-0.91406,2.2148-0.91406"/>
<path id="path3304" style="text-align:start;" d="m272.83,95.395,0-3.5508,1.0781,0,0,9.1172-1.0781,0,0-0.98438c-0.22657,0.39062-0.51368,0.68164-0.86133,0.87304-0.34375,0.1875-0.75781,0.28125-1.2422,0.28125-0.79298,0-1.4395-0.3164-1.9395-0.94922-0.49609-0.63281-0.74414-1.4648-0.74414-2.4961,0-1.0312,0.24805-1.8633,0.74414-2.4961,0.5-0.63281,1.1465-0.94921,1.9395-0.94922,0.48437,0.000007,0.89843,0.09571,1.2422,0.28711,0.34765,0.18751,0.63476,0.47657,0.86133,0.86719m-3.6738,2.291c0,0.79297,0.16211,1.416,0.48633,1.8691,0.32812,0.44922,0.77734,0.67383,1.3477,0.67383,0.57031,0,1.0195-0.22461,1.3476-0.67383,0.32812-0.45312,0.49219-1.0762,0.49219-1.8691,0-0.79296-0.16407-1.4141-0.49219-1.8633-0.32813-0.45312-0.77734-0.67968-1.3476-0.67969-0.57032,0.000005-1.0195,0.22657-1.3477,0.67969-0.32422,0.44922-0.48633,1.0703-0.48633,1.8633"/>
<path id="path3306" style="text-align:start;" d="m281.74,97.41,0,0.52734-4.957,0c0.0469,0.74219,0.26953,1.3086,0.66797,1.6992,0.40234,0.38672,0.96093,0.58008,1.6758,0.58008,0.41406,0,0.81445-0.0508,1.2012-0.15234,0.39062-0.10157,0.77734-0.25391,1.1602-0.45704v1.0195c-0.38673,0.16406-0.78321,0.28906-1.1895,0.375-0.40625,0.0859-0.81836,0.1289-1.2363,0.1289-1.0469,0-1.877-0.30469-2.4902-0.91406-0.60937-0.60937-0.91406-1.4336-0.91406-2.4727,0-1.0742,0.28906-1.9258,0.86719-2.5547,0.58203-0.63281,1.3652-0.94921,2.3496-0.94922,0.8828,0.000007,1.5801,0.28516,2.0918,0.85547,0.51562,0.56641,0.77343,1.3379,0.77344,2.3145m-1.0781-0.31641c-0.008-0.58984-0.17384-1.0605-0.49805-1.4121-0.32032-0.35156-0.7461-0.52734-1.2774-0.52734-0.60156,0.000006-1.084,0.16993-1.4473,0.50977-0.35938,0.33985-0.56641,0.81836-0.62109,1.4355l3.8438-0.0059"/>
<path id="path3308" style="text-align:start;" d="m287.67,94.592,0,1.0195c-0.30469-0.15624-0.6211-0.27343-0.94922-0.35156-0.32813-0.07812-0.66797-0.11718-1.0195-0.11719-0.53516,0.000005-0.9375,0.08204-1.207,0.24609-0.26563,0.16407-0.39844,0.41016-0.39844,0.73828,0,0.25,0.0957,0.44727,0.28711,0.5918,0.1914,0.14063,0.57617,0.2754,1.1543,0.4043l0.36914,0.08203c0.76562,0.16407,1.3086,0.39649,1.6289,0.69726,0.32422,0.29688,0.48632,0.71289,0.48633,1.248-0.00001,0.60938-0.24219,1.0918-0.72656,1.4473-0.48048,0.35547-1.1426,0.5332-1.9863,0.5332-0.35157,0-0.71875-0.0352-1.1016-0.10547-0.37891-0.0664-0.7793-0.16797-1.2012-0.30468v-1.1133c0.39843,0.20703,0.79101,0.36328,1.1777,0.46875,0.38672,0.10157,0.76953,0.15235,1.1484,0.15235,0.50781,0,0.89843-0.0859,1.1719-0.25781,0.27344-0.17578,0.41015-0.42187,0.41016-0.73828-0.00001-0.29297-0.0996-0.51758-0.29883-0.67383-0.19532-0.15625-0.62696-0.30664-1.2949-0.45117l-0.375-0.08789c-0.66797-0.14062-1.1504-0.35547-1.4473-0.64453-0.29687-0.29296-0.44531-0.69336-0.44531-1.2012,0-0.61718,0.21875-1.0937,0.65625-1.4297,0.4375-0.33593,1.0586-0.5039,1.8633-0.50391,0.39844,0.000007,0.77344,0.0293,1.125,0.08789,0.35156,0.0586,0.67578,0.14649,0.97266,0.26367"/>
</g>
<g id="g4033" stroke="#abb400" transform="translate(-92,-17.999962)">
<g id="g4027" stroke-width="2" fill="none">
<path id="path4009" style="marker-start:none;marker-end:none;" d="m265,122.31c0,27.419-137.32,4.6884-137.32,36.364"/>
<path id="path4011" style="marker-start:none;marker-end:none;" d="m265,122.31c0,28.126-67.731,17.416-67.731,36.364"/>
</g>
<path id="path4019" style="marker-start:none;marker-end:none;" d="m265,122.31,0,36.364" stroke-width="2" fill="none"/>
<use id="use4031" xlink:href="#g4027" transform="matrix(-1,0,0,1,529.85787,0)" height="450" width="530" y="0" x="0"/>
</g>
<use id="use2886" xlink:href="#g2876" transform="translate(142,226.49998)" height="450" width="530" y="0" x="0"/>
<g id="g2888" transform="translate(-193,208.50005)">
<g id="g2890" transform="matrix(0.76,0,0,0.4593146,162.78,-301.482)">
<path id="rect2892" fill="#0093d9" d="m72.658,814.36,123.68,0c7.2895,0,13.158,9.7101,13.158,21.772v76.457c0,12.061-5.8684,21.772-13.158,21.772h-123.68c-7.292,0-13.16-9.71-13.16-21.77v-76.457c0-12.061,5.8684-21.772,13.158-21.772z"/>
<path id="rect2894" fill="url(#pattern3000)" d="m72.658,814.36,123.68,0c7.2895,0,13.158,9.7101,13.158,21.772v76.457c0,12.061-5.8684,21.772-13.158,21.772h-123.68c-7.292,0-13.16-9.71-13.16-21.77v-76.457c0-12.061,5.8684-21.772,13.158-21.772z"/>
<path id="rect2896" fill="url(#radialGradient2908)" d="m72.658,814.36,123.68,0c7.2895,0,13.158,9.7101,13.158,21.772v76.457c0,12.061-5.8684,21.772-13.158,21.772h-123.68c-7.292,0-13.16-9.71-13.16-21.77v-76.457c0-12.061,5.8684-21.772,13.158-21.772z"/>
</g>
<g id="flowRoot2898" style="writing-mode:lr-tb;text-anchor:middle;text-align:start;" font-weight="normal" transform="translate(8.37,-7.2274832)" line-height="125%" font-stretch="normal" font-size="14px" font-variant="normal" font-style="normal" font-family="Interstate-Bold" fill="#FFF">
<path id="path3315" d="m209.45,92.748,5.8652,0,0,1.1621-4.4844,0,0,3.0078,4.0469,0,0,1.1621-4.0469,0,0,4.874-1.3809,0,0-10.206"/>
<path id="path3317" d="m216.43,95.298,1.2578,0,0,7.6563-1.2578,0,0-7.6563m0-2.9805,1.2578,0,0,1.5928-1.2578,0,0-1.5928"/>
<path id="path3319" d="m225.81,99.133c0-0.92512-0.19141-1.6497-0.57421-2.1738-0.37827-0.52864-0.90008-0.79296-1.5654-0.79297-0.66537,0.000007-1.1895,0.26433-1.5723,0.79297-0.37826,0.52409-0.56739,1.2487-0.56738,2.1738-0.00001,0.92513,0.18912,1.652,0.56738,2.1807,0.38281,0.52409,0.9069,0.78614,1.5723,0.78614,0.66535,0,1.1872-0.26205,1.5654-0.78614,0.3828-0.52864,0.57421-1.2555,0.57421-2.1807m-4.2793-2.6729c0.26432-0.45572,0.597-0.79296,0.99804-1.0117,0.4056-0.2233,0.88867-0.33495,1.4492-0.33496,0.92968,0.000008,1.6839,0.36915,2.2627,1.1074,0.58332,0.73829,0.87499,1.709,0.875,2.9121-0.00001,1.2031-0.29168,2.1738-0.875,2.9121-0.57878,0.73828-1.333,1.1074-2.2627,1.1074-0.56055,0-1.0436-0.10937-1.4492-0.32812-0.40104-0.22331-0.73372-0.56283-0.99804-1.0186v1.1484h-1.2646v-10.637h1.2646v4.1426"/>
<path id="path3321" d="m233.63,96.474c-0.14128-0.08203-0.29623-0.14127-0.46484-0.17774-0.16407-0.04101-0.34636-0.06152-0.54688-0.06152-0.71094,0.000006-1.2578,0.23243-1.6406,0.69726-0.37826,0.46029-0.56739,1.1234-0.56738,1.9893v4.0332h-1.2646v-7.6563h1.2646v1.1895c0.26432-0.46484,0.60839-0.80891,1.0322-1.0322,0.42383-0.22786,0.9388-0.34179,1.5449-0.3418,0.0866,0.000008,0.18229,0.0068,0.28711,0.02051,0.10482,0.0091,0.22103,0.02507,0.34864,0.04785l0.007,1.292"/>
<path id="path3323" d="m241.21,98.812,0,0.61524-5.7832,0c0.0547,0.86588,0.31445,1.5267,0.7793,1.9824,0.4694,0.45117,1.1211,0.67676,1.9551,0.67675,0.48307,0.00001,0.95019-0.0592,1.4014-0.17773,0.45572-0.11849,0.90689-0.29622,1.3535-0.5332v1.1894c-0.45118,0.19141-0.91374,0.33724-1.3877,0.4375-0.47397,0.10026-0.95476,0.15039-1.4424,0.15039-1.2214,0-2.1898-0.35547-2.9053-1.0664-0.71094-0.71093-1.0664-1.6725-1.0664-2.8848,0-1.2533,0.33724-2.2467,1.0117-2.9805,0.67904-0.73827,1.5928-1.1074,2.7412-1.1074,1.03,0.000008,1.8434,0.33269,2.4404,0.99805,0.60156,0.66081,0.90234,1.5609,0.90235,2.7002m-1.2578-0.36914c-0.009-0.68815-0.2028-1.2373-0.58105-1.6475-0.3737-0.41015-0.87045-0.61523-1.4902-0.61524-0.70183,0.000007-1.2647,0.19825-1.6885,0.59473-0.41927,0.39649-0.66081,0.95476-0.72461,1.6748l4.4844-0.0068"/>
<path id="path3325" d="m255.41,93.535,0,1.4561c-0.46485-0.43293-0.96159-0.7565-1.4902-0.9707-0.5241-0.21418-1.0824-0.32128-1.6748-0.32129-1.1667,0.000009-2.0599,0.35776-2.6797,1.0732-0.6198,0.71094-0.92969,1.7409-0.92969,3.0898,0,1.3444,0.30989,2.3744,0.92969,3.0898,0.61978,0.71094,1.513,1.0664,2.6797,1.0664,0.59245,0.00001,1.1507-0.10709,1.6748-0.32128,0.52864-0.2142,1.0254-0.53776,1.4902-0.97071v1.4424c-0.48308,0.32812-0.99577,0.57421-1.5381,0.73828-0.53777,0.16406-1.1074,0.24609-1.709,0.24609-1.5449,0-2.7617-0.47168-3.6504-1.415-0.88867-0.94791-1.333-2.2399-1.333-3.876,0-1.6406,0.44434-2.9326,1.333-3.876,0.88867-0.94791,2.1055-1.4219,3.6504-1.4219,0.61067,0.000011,1.1849,0.08204,1.7227,0.24609,0.54231,0.15952,1.0504,0.40105,1.5244,0.72461"/>
<path id="path3327" d="m263.86,98.333,0,4.6211-1.2578,0,0-4.5801c-0.00001-0.7246-0.14129-1.2669-0.42383-1.627-0.28256-0.36002-0.70639-0.54003-1.2715-0.54004-0.67904,0.000007-1.2145,0.21648-1.6064,0.64941-0.39193,0.43295-0.5879,1.0231-0.58789,1.7705v4.3272h-1.2646v-10.637h1.2646v4.1699c0.30078-0.46028,0.65397-0.80435,1.0596-1.0322,0.41015-0.22786,0.88183-0.34179,1.415-0.3418,0.87955,0.000008,1.5449,0.27344,1.9961,0.82031,0.45116,0.54232,0.67675,1.3421,0.67676,2.3994"/>
<path id="path3329" d="m269.86,99.106c-1.0163,0.000004-1.7204,0.11622-2.1123,0.34863-0.39193,0.23242-0.5879,0.62891-0.58789,1.1895-0.00001,0.44662,0.14583,0.80209,0.4375,1.0664,0.29622,0.25976,0.69726,0.38965,1.2031,0.38965,0.69726,0,1.2555-0.2461,1.6748-0.73829,0.42382-0.49674,0.63573-1.1553,0.63574-1.9756v-0.28027h-1.251m2.5088-0.51953,0,4.3682-1.2578,0,0-1.1621c-0.28712,0.46484-0.64486,0.80892-1.0732,1.0322-0.42839,0.21875-0.95248,0.32812-1.5723,0.32812-0.78386,0-1.4082-0.21875-1.873-0.65625-0.46028-0.44206-0.69043-1.0322-0.69043-1.7705,0-0.86132,0.28711-1.5107,0.86133-1.9482,0.57878-0.4375,1.4401-0.65624,2.584-0.65625h1.7637v-0.12305c-0.00001-0.57877-0.19141-1.0254-0.57422-1.3398-0.37826-0.319-0.91146-0.47851-1.5996-0.47852-0.4375,0.000007-0.86361,0.05242-1.2783,0.15723-0.41472,0.10482-0.81348,0.26205-1.1963,0.47168v-1.1621c0.46028-0.17773,0.9069-0.30989,1.3398-0.39648,0.43294-0.09114,0.85449-0.13671,1.2646-0.13672,1.1074,0.000008,1.9346,0.28712,2.4814,0.86133,0.54687,0.57422,0.8203,1.4447,0.82031,2.6113"/>
<path id="path3331" d="m281.36,98.333,0,4.6211-1.2578,0,0-4.5801c-0.00001-0.7246-0.14129-1.2669-0.42383-1.627-0.28256-0.36002-0.70639-0.54003-1.2715-0.54004-0.67904,0.000007-1.2145,0.21648-1.6064,0.64941-0.39193,0.43295-0.5879,1.0231-0.58789,1.7705v4.3272h-1.2646v-7.6563h1.2646v1.1895c0.30078-0.46028,0.65397-0.80435,1.0596-1.0322,0.41015-0.22786,0.88183-0.34179,1.415-0.3418,0.87955,0.000008,1.5449,0.27344,1.9961,0.82031,0.45116,0.54232,0.67675,1.3421,0.67676,2.3994"/>
<path id="path3333" d="m290.25,98.333,0,4.6211-1.2578,0,0-4.5801c0-0.7246-0.14128-1.2669-0.42382-1.627-0.28256-0.36002-0.70639-0.54003-1.2715-0.54004-0.67904,0.000007-1.2145,0.21648-1.6064,0.64941-0.39193,0.43295-0.5879,1.0231-0.58789,1.7705v4.3272h-1.2646v-7.6563h1.2646v1.1895c0.30077-0.46028,0.65396-0.80435,1.0596-1.0322,0.41015-0.22786,0.88183-0.34179,1.415-0.3418,0.87955,0.000008,1.5449,0.27344,1.9961,0.82031,0.45116,0.54232,0.67675,1.3421,0.67676,2.3994"/>
<path id="path3335" d="m299.32,98.812,0,0.61524-5.7832,0c0.0547,0.86588,0.31445,1.5267,0.7793,1.9824,0.4694,0.45117,1.1211,0.67676,1.9551,0.67675,0.48307,0.00001,0.95019-0.0592,1.4014-0.17773,0.45573-0.11849,0.9069-0.29622,1.3535-0.5332v1.1894c-0.45118,0.19141-0.91374,0.33724-1.3877,0.4375-0.47397,0.10026-0.95476,0.15039-1.4424,0.15039-1.2214,0-2.1898-0.35547-2.9053-1.0664-0.71094-0.71093-1.0664-1.6725-1.0664-2.8848,0-1.2533,0.33724-2.2467,1.0117-2.9805,0.67904-0.73827,1.5928-1.1074,2.7412-1.1074,1.0299,0.000008,1.8434,0.33269,2.4404,0.99805,0.60156,0.66081,0.90234,1.5609,0.90235,2.7002m-1.2578-0.36914c-0.009-0.68815-0.2028-1.2373-0.58105-1.6475-0.3737-0.41015-0.87045-0.61523-1.4902-0.61524-0.70182,0.000007-1.2646,0.19825-1.6885,0.59473-0.41928,0.39649-0.66081,0.95476-0.72461,1.6748l4.4844-0.0068"/>
<path id="path3337" d="m301.36,92.318,1.2578,0,0,10.637-1.2578,0,0-10.637"/>
<path id="path3339" d="m239.85,113.02,0,1.1895c-0.35547-0.18229-0.72462-0.31901-1.1074-0.41016-0.38282-0.0911-0.7793-0.13671-1.1895-0.13672-0.62435,0.00001-1.0938,0.0957-1.4082,0.28711-0.3099,0.19141-0.46484,0.47852-0.46484,0.86133,0,0.29167,0.11165,0.52181,0.33496,0.69043,0.2233,0.16407,0.6722,0.32129,1.3467,0.47168l0.43066,0.0957c0.89323,0.19141,1.5267,0.46257,1.9004,0.81348,0.37825,0.34636,0.56738,0.83171,0.56739,1.456-0.00001,0.71094-0.28256,1.2738-0.84766,1.6885-0.56055,0.41471-1.333,0.62207-2.3174,0.62207-0.41016,0-0.83855-0.041-1.2852-0.12305-0.44206-0.0775-0.90918-0.19596-1.4014-0.35547v-1.2988c0.46485,0.24153,0.92285,0.42383,1.374,0.54687,0.45117,0.11849,0.89778,0.17774,1.3398,0.17774,0.59244,0,1.0482-0.10026,1.3672-0.30079,0.319-0.20507,0.47851-0.49218,0.47851-0.86132,0-0.3418-0.11621-0.60384-0.34863-0.78614-0.22787-0.18228-0.73145-0.35774-1.5107-0.52636l-0.4375-0.10254c-0.7793-0.16406-1.3421-0.41471-1.6885-0.75196-0.34635-0.34179-0.51953-0.80891-0.51953-1.4014,0-0.72005,0.25521-1.276,0.76563-1.668,0.51041-0.39192,1.235-0.58788,2.1738-0.58789,0.46484,0.00001,0.90234,0.0342,1.3125,0.10254,0.41015,0.0684,0.78841,0.1709,1.1348,0.30761"/>
<path id="path3341" d="m241.54,112.8,1.2578,0,1.5723,5.9746,1.5654-5.9746,1.4834,0,1.5723,5.9746,1.5654-5.9746,1.2578,0-2.0029,7.6562-1.4834,0-1.6475-6.2754-1.6543,6.2754-1.4834,0-2.0029-7.6562"/>
<path id="path3343" d="m253.72,112.8,1.2578,0,0,7.6562-1.2578,0,0-7.6562m0-2.9805,1.2578,0,0,1.5928-1.2578,0,0-1.5928"/>
<path id="path3345" d="m258.85,110.62,0,2.1738,2.5908,0,0,0.97754-2.5908,0,0,4.1562c-0.00001,0.62435,0.0843,1.0254,0.25293,1.2031,0.17317,0.17774,0.5218,0.2666,1.0459,0.2666h1.292v1.0527h-1.292c-0.9707,0-1.6406-0.18001-2.0098-0.54004-0.36914-0.36458-0.55371-1.0254-0.55371-1.9824v-4.1562h-0.92285v-0.97754h0.92285v-2.1738h1.2646"/>
<path id="path3347" d="m268.61,113.09,0,1.1758c-0.35547-0.19595-0.71322-0.34179-1.0732-0.4375-0.35547-0.10025-0.7155-0.15038-1.0801-0.15039-0.81575,0.00001-1.4492,0.25978-1.9004,0.7793-0.45117,0.51498-0.67676,1.2396-0.67675,2.1738-0.00001,0.93425,0.22558,1.6611,0.67675,2.1807,0.45117,0.51498,1.0846,0.77247,1.9004,0.77246,0.36458,0.00001,0.72461-0.0478,1.0801-0.14355,0.36002-0.10026,0.71777-0.24837,1.0732-0.44434v1.1621c-0.35091,0.16407-0.7155,0.28711-1.0938,0.36914-0.3737,0.082-0.77246,0.12305-1.1963,0.12305-1.153,0-2.069-0.3623-2.748-1.0869-0.67904-0.72461-1.0186-1.7022-1.0186-2.9326,0-1.2487,0.3418-2.2308,1.0254-2.9463,0.68815-0.71549,1.6292-1.0732,2.8232-1.0732,0.38736,0.00001,0.76562,0.041,1.1348,0.12304,0.36914,0.0775,0.72688,0.19598,1.0732,0.35547"/>
<path id="path3349" d="m277.15,115.83,0,4.6211-1.2578,0,0-4.5801c-0.00001-0.7246-0.14128-1.2669-0.42383-1.627-0.28256-0.36002-0.70639-0.54004-1.2715-0.54004-0.67904,0-1.2145,0.21648-1.6064,0.64941-0.39193,0.43295-0.58789,1.0231-0.58789,1.7705v4.3272h-1.2646v-10.637h1.2646v4.1699c0.30078-0.46028,0.65397-0.80435,1.0596-1.0322,0.41015-0.22785,0.88183-0.34178,1.415-0.34179,0.87955,0.00001,1.5449,0.27344,1.9961,0.82031,0.45117,0.54232,0.67675,1.3421,0.67676,2.3994"/>
</g>
</g>
<g id="flowRoot5083" style="writing-mode:lr-tb;text-anchor:middle;text-align:start;" font-weight="normal" transform="translate(169.21315,205.11113)" line-height="125%" font-stretch="normal" font-size="12px" font-variant="normal" font-style="normal" font-family="Interstate-Bold" fill="#777d00">
<path id="path3352" style="text-align:start;" d="m208.36,93.186,0,3.2871,1.4883,0c0.55078,0.000004,0.97656-0.14257,1.2773-0.42774,0.30078-0.28515,0.45117-0.6914,0.45117-1.2188,0-0.52343-0.15039-0.92773-0.45117-1.2129-0.30078-0.28515-0.72656-0.42773-1.2773-0.42774h-1.4883m-1.1836-0.97266,2.6719,0c0.98046,0.000009,1.7207,0.22266,2.2207,0.66797,0.5039,0.44141,0.75586,1.0899,0.75586,1.9453,0,0.86329-0.25196,1.5156-0.75586,1.957-0.5,0.44141-1.2402,0.66211-2.2207,0.66211h-1.4883v3.5156h-1.1836v-8.748"/>
<path id="path3354" style="text-align:start;" d="m217.96,95.406c-0.12109-0.07031-0.25391-0.12109-0.39843-0.15234-0.14063-0.03515-0.29688-0.05273-0.46875-0.05273-0.60938,0.000006-1.0781,0.19922-1.4062,0.59766-0.32422,0.39454-0.48633,0.96289-0.48633,1.7051v3.457h-1.084v-6.5625h1.084v1.0195c0.22656-0.39843,0.52148-0.69335,0.88476-0.88476,0.36328-0.19531,0.80469-0.29296,1.3242-0.29297,0.0742,0.000007,0.15625,0.0059,0.2461,0.01758,0.0898,0.0078,0.18944,0.02149,0.29882,0.04102l0.006,1.1074"/>
<path id="path3356" style="text-align:start;" d="m219.11,94.398,1.0781,0,0,6.5625-1.0781,0,0-6.5625m0-2.5547,1.0781,0,0,1.3652-1.0781,0,0-1.3652"/>
<path id="path3358" style="text-align:start;" d="m221.66,94.398,1.1426,0,2.0508,5.5078,2.0508-5.5078,1.1426,0-2.4609,6.5625-1.4648,0-2.4609-6.5625"/>
<path id="path3360" style="text-align:start;" d="m232.52,97.662c-0.8711,0.000003-1.4746,0.09961-1.8106,0.29883-0.33594,0.19922-0.5039,0.53906-0.5039,1.0195,0,0.38281,0.125,0.6875,0.375,0.91406,0.2539,0.22266,0.59765,0.33399,1.0312,0.33399,0.59765,0,1.0762-0.21094,1.4355-0.63281,0.36328-0.42578,0.54492-0.99023,0.54493-1.6934v-0.24023h-1.0723m2.1504-0.44531,0,3.7441-1.0781,0,0-0.99609c-0.2461,0.39843-0.55274,0.69336-0.91993,0.88476-0.36719,0.1875-0.8164,0.28125-1.3476,0.28125-0.67188,0-1.207-0.1875-1.6055-0.5625-0.39453-0.3789-0.5918-0.88476-0.5918-1.5176,0-0.73828,0.2461-1.2949,0.73828-1.6699,0.4961-0.375,1.2344-0.5625,2.2148-0.5625h1.5117v-0.10547c-0.00001-0.49609-0.16407-0.8789-0.49219-1.1484-0.32422-0.27343-0.78125-0.41015-1.3711-0.41016-0.37501,0.000006-0.74024,0.04493-1.0957,0.13477-0.35547,0.08985-0.69726,0.22462-1.0254,0.4043v-0.99609c0.39453-0.15234,0.77734-0.26562,1.1484-0.33984,0.37109-0.07812,0.73242-0.11718,1.084-0.11719,0.94922,0.000007,1.6582,0.2461,2.127,0.73828,0.46874,0.49219,0.70312,1.2383,0.70312,2.2383"/>
<path id="path3362" style="text-align:start;" d="m237.99,92.535,0,1.8633,2.2207,0,0,0.83789-2.2207,0,0,3.5625c0,0.53516,0.0723,0.87891,0.21679,1.0312,0.14844,0.15234,0.44727,0.22852,0.89649,0.22852h1.1074v0.90234h-1.1074c-0.83203,0-1.4062-0.1543-1.7227-0.46289-0.3164-0.3125-0.47461-0.87891-0.47461-1.6992v-3.5625h-0.79101v-0.83789h0.79101v-1.8633h1.084"/>
<path id="path3364" style="text-align:start;" d="m247.24,97.41,0,0.52734-4.957,0c0.0469,0.74219,0.26953,1.3086,0.66797,1.6992,0.40234,0.38672,0.96093,0.58008,1.6758,0.58008,0.41406,0,0.81445-0.0508,1.2012-0.15234,0.39062-0.10157,0.77734-0.25391,1.1602-0.45704v1.0195c-0.38673,0.16406-0.78321,0.28906-1.1895,0.375-0.40625,0.0859-0.81836,0.1289-1.2363,0.1289-1.0469,0-1.877-0.30469-2.4902-0.91406-0.60937-0.60937-0.91406-1.4336-0.91406-2.4727,0-1.0742,0.28906-1.9258,0.86719-2.5547,0.58203-0.63281,1.3652-0.94921,2.3496-0.94922,0.8828,0.000007,1.5801,0.28516,2.0918,0.85547,0.51562,0.56641,0.77343,1.3379,0.77344,2.3145m-1.0781-0.31641c-0.008-0.58984-0.17384-1.0605-0.49805-1.4121-0.32032-0.35156-0.7461-0.52734-1.2774-0.52734-0.60156,0.000006-1.084,0.16993-1.4473,0.50977-0.35938,0.33985-0.56641,0.81836-0.62109,1.4355l3.8438-0.0059"/>
<path id="path3366" style="text-align:start;" d="m207.18,107.21,1.5938,0,3.8789,7.3184,0-7.3184,1.1484,0,0,8.748-1.5938,0-3.8789-7.3184,0,7.3184-1.1484,0,0-8.748"/>
<path id="path3368" style="text-align:start;" d="m221.72,112.41,0,0.52734-4.957,0c0.0469,0.74219,0.26953,1.3086,0.66797,1.6992,0.40234,0.38672,0.96093,0.58008,1.6758,0.58008,0.41406,0,0.81445-0.0508,1.2012-0.15234,0.39062-0.10157,0.77734-0.25391,1.1602-0.45704v1.0195c-0.38672,0.16406-0.78321,0.28906-1.1894,0.375-0.40626,0.0859-0.81837,0.1289-1.2363,0.1289-1.0469,0-1.877-0.30469-2.4902-0.91406-0.60937-0.60937-0.91406-1.4336-0.91406-2.4727,0-1.0742,0.28906-1.9258,0.86719-2.5547,0.58203-0.63281,1.3652-0.94922,2.3496-0.94922,0.88281,0,1.5801,0.28516,2.0918,0.85547,0.51561,0.56641,0.77343,1.3379,0.77343,2.3144m-1.0781-0.31641c-0.008-0.58984-0.17384-1.0605-0.49805-1.4121-0.32032-0.35155-0.7461-0.52733-1.2773-0.52734-0.60157,0.00001-1.084,0.16993-1.4473,0.50976-0.35938,0.33985-0.56641,0.81837-0.62109,1.4356l3.8438-0.006"/>
<path id="path3370" style="text-align:start;" d="m224.53,107.54,0,1.8633,2.2207,0,0,0.83789-2.2207,0,0,3.5625c0,0.53516,0.0723,0.87891,0.2168,1.0312,0.14843,0.15235,0.44726,0.22852,0.89648,0.22852h1.1074v0.90234h-1.1074c-0.83203,0-1.4062-0.1543-1.7226-0.46289-0.31641-0.3125-0.47461-0.87891-0.47461-1.6992v-3.5625h-0.79102v-0.83789h0.79102v-1.8633h1.084"/>
<path id="path3372" style="text-align:start;" d="m227.55,109.4,1.0781,0,1.3476,5.1211,1.3418-5.1211,1.2715,0,1.3477,5.1211,1.3418-5.1211,1.0781,0-1.7168,6.5625-1.2715,0-1.4121-5.3789-1.418,5.3789-1.2715,0-1.7168-6.5625"/>
<path id="path3374" style="text-align:start;" d="m240.54,110.15c-0.57813,0.00001-1.0352,0.22657-1.3711,0.67969-0.33594,0.44922-0.50391,1.0664-0.5039,1.8516-0.00001,0.78516,0.16601,1.4043,0.49804,1.8574,0.33594,0.44922,0.79492,0.67383,1.377,0.67383,0.57421,0,1.0293-0.22656,1.3652-0.67969,0.33593-0.45312,0.5039-1.0703,0.50391-1.8516-0.00001-0.77734-0.16798-1.3926-0.50391-1.8457-0.33594-0.45703-0.79102-0.68554-1.3652-0.68555m0-0.91406c0.93749,0,1.6738,0.30469,2.209,0.91406,0.53515,0.60938,0.80273,1.4531,0.80273,2.5312,0,1.0742-0.26758,1.918-0.80273,2.5312-0.53516,0.60937-1.2715,0.91406-2.209,0.91406-0.94141,0-1.6797-0.30469-2.2148-0.91406-0.53125-0.61328-0.79687-1.457-0.79687-2.5312,0-1.0781,0.26562-1.9219,0.79687-2.5312,0.53516-0.60937,1.2734-0.91406,2.2148-0.91406"/>
<path id="path3376" style="text-align:start;" d="m249.14,110.41c-0.1211-0.0703-0.25391-0.12109-0.39844-0.15234-0.14063-0.0352-0.29688-0.0527-0.46875-0.0527-0.60938,0.00001-1.0781,0.19923-1.4062,0.59766-0.32422,0.39454-0.48633,0.9629-0.48633,1.7051v3.457h-1.084v-6.5625h1.084v1.0195c0.22656-0.39843,0.52148-0.69335,0.88477-0.88476,0.36328-0.19531,0.80468-0.29297,1.3242-0.29297,0.0742,0,0.15624,0.006,0.24609,0.0176,0.0898,0.008,0.18945,0.0215,0.29883,0.041l0.006,1.1074"/>
<path id="path3378" style="text-align:start;" d="m250.24,106.84,1.084,0,0,5.3848,3.2168-2.8301,1.377,0-3.4805,3.0703,3.627,3.4922-1.4062,0-3.334-3.2051,0,3.2051-1.084,0,0-9.1172"/>
</g>
<g id="flowRoot5145" style="writing-mode:lr-tb;text-anchor:middle;text-align:start;" font-weight="normal" transform="translate(199.87,91.161388)" line-height="125%" font-stretch="normal" font-size="12px" font-variant="normal" font-style="normal" font-family="Interstate-Bold" fill="#5c5c4f">
<path id="path3381" style="text-align:start;" d="m208.36,93.186,0,3.2871,1.4883,0c0.55078,0.000004,0.97656-0.14257,1.2773-0.42774,0.30078-0.28515,0.45117-0.6914,0.45117-1.2188,0-0.52343-0.15039-0.92773-0.45117-1.2129-0.30078-0.28515-0.72656-0.42773-1.2773-0.42774h-1.4883m-1.1836-0.97266,2.6719,0c0.98046,0.000009,1.7207,0.22266,2.2207,0.66797,0.5039,0.44141,0.75586,1.0899,0.75586,1.9453,0,0.86329-0.25196,1.5156-0.75586,1.957-0.5,0.44141-1.2402,0.66211-2.2207,0.66211h-1.4883v3.5156h-1.1836v-8.748"/>
<path id="path3383" style="text-align:start;" d="m216.49,95.154c-0.57813,0.000006-1.0352,0.22657-1.3711,0.67969-0.33594,0.44922-0.50391,1.0664-0.50391,1.8516,0,0.78516,0.16601,1.4043,0.49805,1.8574,0.33593,0.44922,0.79492,0.67383,1.377,0.67383,0.57422,0,1.0293-0.22656,1.3652-0.67969,0.33594-0.45312,0.50391-1.0703,0.50391-1.8516,0-0.77734-0.16797-1.3926-0.50391-1.8457-0.33594-0.45702-0.79101-0.68554-1.3652-0.68555m0-0.91406c0.9375,0.000007,1.6738,0.30469,2.209,0.91406,0.53515,0.60938,0.80273,1.4531,0.80274,2.5312-0.00001,1.0742-0.26759,1.918-0.80274,2.5313-0.53516,0.60937-1.2715,0.91406-2.209,0.91406-0.94141,0-1.6797-0.30469-2.2148-0.91406-0.53125-0.61328-0.79688-1.457-0.79688-2.5313,0-1.0781,0.26563-1.9219,0.79688-2.5312,0.53515-0.60937,1.2734-0.91406,2.2148-0.91406"/>
<path id="path3385" style="text-align:start;" d="m220.66,94.398,1.0781,0,1.3477,5.1211,1.3418-5.1211,1.2715,0,1.3476,5.1211,1.3418-5.1211,1.0781,0-1.7168,6.5625-1.2715,0-1.4121-5.3789-1.418,5.3789-1.2715,0-1.7168-6.5625"/>
<path id="path3387" style="text-align:start;" d="m236.72,97.41,0,0.52734-4.957,0c0.0469,0.74219,0.26953,1.3086,0.66797,1.6992,0.40234,0.38672,0.96093,0.58008,1.6758,0.58008,0.41406,0,0.81445-0.0508,1.2012-0.15234,0.39062-0.10157,0.77734-0.25391,1.1602-0.45704v1.0195c-0.38672,0.16406-0.78321,0.28906-1.1894,0.375-0.40626,0.0859-0.81837,0.1289-1.2363,0.1289-1.0469,0-1.877-0.30469-2.4902-0.91406-0.60937-0.60937-0.91406-1.4336-0.91406-2.4727,0-1.0742,0.28906-1.9258,0.86719-2.5547,0.58203-0.63281,1.3652-0.94921,2.3496-0.94922,0.88281,0.000007,1.5801,0.28516,2.0918,0.85547,0.51561,0.56641,0.77343,1.3379,0.77343,2.3145m-1.0781-0.31641c-0.008-0.58984-0.17384-1.0605-0.49805-1.4121-0.32032-0.35156-0.7461-0.52734-1.2773-0.52734-0.60157,0.000006-1.084,0.16993-1.4473,0.50977-0.35938,0.33985-0.56641,0.81836-0.62109,1.4355l3.8438-0.0059"/>
<path id="path3389" style="text-align:start;" d="m242.27,95.406c-0.1211-0.07031-0.25391-0.12109-0.39844-0.15234-0.14063-0.03515-0.29688-0.05273-0.46875-0.05273-0.60937,0.000006-1.0781,0.19922-1.4062,0.59766-0.32422,0.39454-0.48633,0.96289-0.48632,1.7051v3.457h-1.084v-6.5625h1.084v1.0195c0.22656-0.39843,0.52148-0.69335,0.88476-0.88476,0.36328-0.19531,0.80468-0.29296,1.3242-0.29297,0.0742,0.000007,0.15625,0.0059,0.24609,0.01758,0.0898,0.0078,0.18945,0.02149,0.29883,0.04102l0.006,1.1074"/>
<path id="path3391" style="text-align:start;" d="m253.83,92.887,0,1.248c-0.39845-0.37109-0.82423-0.64843-1.2774-0.83203-0.44922-0.18359-0.92774-0.27538-1.4355-0.27539-1,0.000008-1.7656,0.30665-2.2969,0.91992-0.53125,0.60938-0.79687,1.4922-0.79687,2.6484,0,1.1523,0.26562,2.0352,0.79687,2.6484,0.53125,0.60938,1.2969,0.91407,2.2969,0.91407,0.5078,0,0.98632-0.0918,1.4355-0.2754,0.45312-0.18359,0.8789-0.46094,1.2774-0.83203v1.2363c-0.41407,0.28125-0.85352,0.49219-1.3184,0.63281-0.46094,0.14063-0.94923,0.21094-1.4648,0.21094-1.3242,0-2.3672-0.40429-3.1289-1.2129-0.76172-0.8125-1.1426-1.9199-1.1426-3.3223,0-1.4062,0.38086-2.5137,1.1426-3.3223,0.76171-0.81249,1.8047-1.2187,3.1289-1.2188,0.52344,0.000009,1.0156,0.07032,1.4766,0.21094,0.46483,0.13673,0.90038,0.34376,1.3066,0.62109"/>
<path id="path3393" style="text-align:start;" d="m258.17,95.154c-0.57813,0.000006-1.0352,0.22657-1.3711,0.67969-0.33594,0.44922-0.50391,1.0664-0.5039,1.8516-0.00001,0.78516,0.16601,1.4043,0.49804,1.8574,0.33594,0.44922,0.79492,0.67383,1.377,0.67383,0.57421,0,1.0293-0.22656,1.3652-0.67969,0.33593-0.45312,0.5039-1.0703,0.50391-1.8516-0.00001-0.77734-0.16798-1.3926-0.50391-1.8457-0.33594-0.45702-0.79102-0.68554-1.3652-0.68555m0-0.91406c0.93749,0.000007,1.6738,0.30469,2.209,0.91406,0.53515,0.60938,0.80273,1.4531,0.80273,2.5312,0,1.0742-0.26758,1.918-0.80273,2.5313-0.53516,0.60937-1.2715,0.91406-2.209,0.91406-0.94141,0-1.6797-0.30469-2.2148-0.91406-0.53125-0.61328-0.79687-1.457-0.79687-2.5313,0-1.0781,0.26562-1.9219,0.79687-2.5312,0.53516-0.60937,1.2734-0.91406,2.2148-0.91406"/>
<path id="path3395" style="text-align:start;" d="m268.41,97,0,3.9609-1.0781,0,0-3.9258c-0.00001-0.62109-0.1211-1.0859-0.36328-1.3945-0.2422-0.30859-0.60548-0.46288-1.0898-0.46289-0.58203,0.000006-1.041,0.18555-1.377,0.55664-0.33594,0.3711-0.50391,0.87696-0.50391,1.5176v3.709h-1.084v-6.5625h1.084v1.0195c0.25781-0.39452,0.56055-0.68945,0.90821-0.88476,0.35156-0.19531,0.75585-0.29296,1.2129-0.29297,0.7539,0.000007,1.3242,0.23438,1.7109,0.70312,0.38672,0.46485,0.58008,1.1504,0.58008,2.0566"/>
<path id="path3397" style="text-align:start;" d="m271.64,92.535,0,1.8633,2.2207,0,0,0.83789-2.2207,0,0,3.5625c0,0.53516,0.0723,0.87891,0.21679,1.0312,0.14844,0.15234,0.44727,0.22852,0.89649,0.22852h1.1074v0.90234h-1.1074c-0.83203,0-1.4062-0.1543-1.7227-0.46289-0.3164-0.3125-0.47461-0.87891-0.47461-1.6992v-3.5625h-0.79101v-0.83789h0.79101v-1.8633h1.084"/>
<path id="path3399" style="text-align:start;" d="m279.09,95.406c-0.12109-0.07031-0.25391-0.12109-0.39843-0.15234-0.14063-0.03515-0.29688-0.05273-0.46875-0.05273-0.60938,0.000006-1.0781,0.19922-1.4062,0.59766-0.32422,0.39454-0.48633,0.96289-0.48633,1.7051v3.457h-1.084v-6.5625h1.084v1.0195c0.22656-0.39843,0.52148-0.69335,0.88476-0.88476,0.36328-0.19531,0.80469-0.29296,1.3242-0.29297,0.0742,0.000007,0.15625,0.0059,0.2461,0.01758,0.0898,0.0078,0.18944,0.02149,0.29882,0.04102l0.006,1.1074"/>
<path id="path3401" style="text-align:start;" d="m282.52,95.154c-0.57813,0.000006-1.0352,0.22657-1.3711,0.67969-0.33594,0.44922-0.5039,1.0664-0.5039,1.8516,0,0.78516,0.16601,1.4043,0.49804,1.8574,0.33594,0.44922,0.79492,0.67383,1.377,0.67383,0.57421,0,1.0293-0.22656,1.3652-0.67969,0.33593-0.45312,0.5039-1.0703,0.50391-1.8516-0.00001-0.77734-0.16798-1.3926-0.50391-1.8457-0.33594-0.45702-0.79102-0.68554-1.3652-0.68555m0-0.91406c0.93749,0.000007,1.6738,0.30469,2.209,0.91406,0.53515,0.60938,0.80273,1.4531,0.80274,2.5312-0.00001,1.0742-0.26759,1.918-0.80274,2.5313-0.53516,0.60937-1.2715,0.91406-2.209,0.91406-0.94141,0-1.6797-0.30469-2.2148-0.91406-0.53125-0.61328-0.79687-1.457-0.79687-2.5313,0-1.0781,0.26562-1.9219,0.79687-2.5312,0.53516-0.60937,1.2734-0.91406,2.2148-0.91406"/>
<path id="path3403" style="text-align:start;" d="m287.31,91.844,1.0781,0,0,9.1172-1.0781,0,0-9.1172"/>
</g>
<use id="use3004" xlink:href="#g2963" transform="translate(68.106606,7.0287692e-8)" height="1" width="1" y="0" x="0"/>
<use id="use3006" xlink:href="#g2963" transform="translate(136.2132,7.0287692e-8)" height="1" width="1" y="0" x="0"/>
<use id="use3008" xlink:href="#g2963" transform="translate(204.3198,7.0287692e-8)" height="450" width="530" y="0" x="0"/>
<use id="use3002" xlink:href="#g2963" transform="translate(271.4264,7.0287692e-8)" height="450" width="530" y="0" x="0"/>
<path id="path3995" d="m335.36,180c42.646,0,64.355-2.9099,64.355,20.627" stroke-dashoffset="0" stroke="#4e376b" stroke-dasharray="none" stroke-miterlimit="4" stroke-width="2" fill="none"/>
<g id="g2963" transform="translate(-26.384775,-93.999962)">
<g id="g2951" transform="matrix(0.3733334,0,0,1.0808167,12.786666,-789.06973)">
<path id="rect2953" fill="#4e376b" d="m86.286,945.36,96.429,0c14.839,0,26.786,4.1265,26.786,9.2523v31.496c0,5.1258-11.946,9.2523-26.786,9.2523h-96.429c-14.845,0-26.791-4.12-26.791-9.25v-31.496c0-5.1258,11.946-9.2523,26.786-9.2523z"/>
<path id="rect2955" fill="url(#pattern2984)" d="m86.286,945.36,96.429,0c14.839,0,26.786,4.1265,26.786,9.2523v31.496c0,5.1258-11.946,9.2523-26.786,9.2523h-96.429c-14.845,0-26.791-4.12-26.791-9.25v-31.496c0-5.1258,11.946-9.2523,26.786-9.2523z"/>
<path id="rect2957" fill="url(#radialGradient5158)" d="m86.286,945.36,96.429,0c14.839,0,26.786,4.1265,26.786,9.2523v31.496c0,5.1258-11.946,9.2523-26.786,9.2523h-96.429c-14.845,0-26.791-4.12-26.791-9.25v-31.496c0-5.1258,11.946-9.2523,26.786-9.2523z"/>
</g>
<g id="computer" transform="matrix(-0.258819,0.9659258,-0.9659258,-0.258819,92.47907,236.14652)">
<path id="path4802" fill="url(#linearGradient2988)" d="m10.98,7.35,0,23.82,13.78,13.88s3.49,0.22,7.14-0.89,5.05-2.67,5.05-2.67v-24.03l-13.36-13.39-12.61,3.28z"/>
<path id="path4804" fill="url(#linearGradient2990)" d="M36.18,16.79,23.61,3.9l-13,3.33,14.2,13.88s3.63-0.11,6.95-1c3.31-0.89,5.27-2.45,5.27-2.45l-0.85-0.87z"/>
<path id="path4806" stroke-linejoin="round" d="m10.98,7.35,0,23.82,13.78,13.88s3.49,0.22,7.14-0.89,5.05-2.67,5.05-2.67v-24.03l-13.36-13.39-12.61,3.28z" stroke="#000" stroke-linecap="round" stroke-width="1.92999995" fill="none"/>
<path id="path4808" fill="url(#linearGradient2992)" d="m10.98,7.35,0,23.82,13.78,13.88s3.49,0.22,7.14-0.89,5.05-2.67,5.05-2.67v-24.03l-13.36-13.39-12.61,3.28z"/>
<path id="path4810" fill="url(#linearGradient2994)" d="M24.52,14.7,37,17.81,37,41.59c-3.78,3.29-7.33,3.36-12.3,3.41l-0.18-30.3z"/>
<path id="path4812" fill="url(#linearGradient2990)" d="m23.58,4.02-12.55,3.4,13.78,13.69s3.63-0.11,6.95-1c3.31-0.89,5.27-2.45,5.27-2.45l-13.45-13.64z"/>
<path id="path4814" d="m11.27,7.58,13.55,13.54s3.21,0.21,6.86-0.77c3.5-0.94,5.15-2.64,5.15-2.64" stroke="#FFF" stroke-linecap="round" stroke-width="0.47999999" fill="none"/>
<path id="path4816" d="m24.74,21.3,0,23.46" stroke="#FFF" stroke-linecap="round" stroke-width="0.47999999" fill="none"/>
<path id="path4818" fill="#808080" d="m27.44,23.79c2.96-0.13,5.78-0.83,8.1-2.41,0.21,0.53,0.16,1.68,0,1.98-0.09,0.09-0.92,0.63-2.36,1.18-1.41,0.53-3.41,1.08-5.71,1.14-0.28-0.46-0.2-1.64-0.03-1.89z"/>
<path id="path4820" fill="#b2b2b2" d="m35.53,23.38-8.09,2.18c0.01,0.04,0.01,0.1,0.03,0.13,2.31-0.06,4.31-0.62,5.72-1.16,1.44-0.55,2.25-1.07,2.34-1.15z"/>
<path id="path4822" fill="#808080" d="m27.44,27.28c2.96-0.12,5.78-0.82,8.1-2.4,0.21,0.52,0.16,1.68,0,1.98-0.09,0.09-0.92,0.63-2.36,1.17-1.41,0.54-3.41,1.09-5.71,1.15-0.28-0.46-0.2-1.64-0.03-1.9z"/>
<path id="path4824" fill="#b2b2b2" d="m35.53,26.87-8.09,2.19c0.01,0.04,0.01,0.1,0.03,0.13,2.31-0.06,4.31-0.62,5.72-1.16,1.44-0.55,2.25-1.07,2.34-1.16z"/>
<path id="path4826" stroke-linejoin="round" d="m27.21,42.71,0-11.19s1.79-0.01,4.64-0.83c2.83-0.82,3.73-1.67,3.73-1.67v11.03s-1.37,1.14-4.04,1.93c-2.66,0.78-4.33,0.73-4.33,0.73z" stroke="#b2b2b2" stroke-linecap="round" stroke-width="0.47999999" fill="none"/>
<path id="path4828" d="m31.68,37.72c0.61-0.18,1.11,0.23,1.11,0.9s-0.5,1.35-1.11,1.53-1.1-0.22-1.1-0.88c0-0.69,0.49-1.37,1.1-1.55z" stroke="#328e36" stroke-width="0.44" fill="url(#radialGradient2998)"/>
</g>
</g>
<path id="path3010" d="m13.529,180,323.23,0" stroke-dashoffset="0" stroke="#e3dcc0" stroke-dasharray="6, 6" stroke-miterlimit="4" stroke-width="2" fill="none"/>
<path id="path5160" style="marker-start:none;marker-end:none;" d="m169.5,382.06c0-44.035-128.1,0.68188-128.1-46.366" stroke="#0093d9" stroke-width="2" fill="none"/>
<path id="path5195" d="m268.7,180,12.374,0m-81.317,0,13.789,0m-80.964,0,13.789,0m-82.378,0,14.496,0" stroke-dashoffset="0" stroke="#4e376b" stroke-dasharray="none" stroke-miterlimit="4" stroke-width="2" fill="none"/>
<g id="g5174" transform="translate(0,3.3105468e-5)">
<g id="g5093" transform="matrix(0.76,0,0,0.3093146,69.78,128.82309)">
<path id="rect5095" fill="#a70000" d="m72.658,814.36,123.68,0c7.2895,0,13.158,14.419,13.158,32.33v55.341c0,17.911-5.8684,32.33-13.158,32.33h-123.68c-7.292,0-13.16-14.42-13.16-32.33v-55.341c0-17.911,5.8684-32.33,13.158-32.33z"/>
<path id="rect5097" fill="url(#pattern5109)" d="m72.658,814.36,123.68,0c7.2895,0,13.158,14.419,13.158,32.33v55.341c0,17.911-5.8684,32.33-13.158,32.33h-123.68c-7.292,0-13.16-14.42-13.16-32.33v-55.341c0-17.911,5.8684-32.33,13.158-32.33z"/>
<path id="rect5099" fill="url(#radialGradient5111)" d="m72.658,814.36,123.68,0c7.2895,0,13.158,14.419,13.158,32.33v55.341c0,17.911-5.8684,32.33-13.158,32.33h-123.68c-7.292,0-13.16-14.42-13.16-32.33v-55.341c0-17.911,5.8684-32.33,13.158-32.33z"/>
</g>
<g id="flowRoot5101" style="writing-mode:lr-tb;text-anchor:middle;text-align:start;" font-weight="normal" transform="translate(-84.503234,300.20425)" line-height="125%" font-stretch="normal" font-size="14px" font-variant="normal" font-style="normal" font-family="Interstate-Bold" fill="#FFF">
<path id="path3412" d="m236.08,93.083,0,1.3467c-0.5241-0.25064-1.0186-0.43749-1.4834-0.56055-0.46485-0.12304-0.91374-0.18456-1.3467-0.18457-0.75196,0.000009-1.333,0.14584-1.7432,0.4375-0.40561,0.29168-0.6084,0.70639-0.6084,1.2441,0,0.45118,0.13444,0.79298,0.40332,1.0254,0.27343,0.22787,0.78841,0.41244,1.5449,0.55371l0.83398,0.1709c1.03,0.19597,1.7887,0.54232,2.2764,1.0391,0.49218,0.49219,0.73827,1.153,0.73828,1.9824-0.00001,0.98894-0.33269,1.7386-0.99804,2.249-0.66082,0.51041-1.6315,0.76562-2.9121,0.76562-0.48308,0-0.99805-0.0547-1.5449-0.16406-0.54232-0.10938-1.1051-0.27116-1.6885-0.48535v-1.4219c0.56054,0.31446,1.1097,0.55143,1.6475,0.71094,0.53776,0.15951,1.0664,0.23926,1.5859,0.23926,0.7884,0,1.3968-0.15495,1.8252-0.46485,0.42838-0.30989,0.64257-0.75195,0.64258-1.3262-0.00001-0.5013-0.15495-0.89322-0.46484-1.1758-0.30535-0.28255-0.80893-0.49446-1.5108-0.63574l-0.84082-0.16406c-1.03-0.20507-1.7751-0.52636-2.2354-0.96387-0.46029-0.43749-0.69043-1.0459-0.69043-1.8252,0-0.90234,0.31673-1.6133,0.9502-2.1328,0.63802-0.51952,1.5153-0.77929,2.6318-0.7793,0.47851,0.000011,0.96614,0.04331,1.4629,0.12988,0.49674,0.0866,1.0049,0.21648,1.5244,0.38965"/>
<path id="path3414" d="m240.07,93.124,0,2.1738,2.5908,0,0,0.97754-2.5908,0,0,4.1563c0,0.62435,0.0843,1.0254,0.25293,1.2031,0.17317,0.17774,0.52181,0.2666,1.0459,0.2666h1.292v1.0527h-1.292c-0.97071,0-1.6406-0.18001-2.0098-0.54004-0.36914-0.36458-0.55371-1.0254-0.55371-1.9824v-4.1563h-0.92285v-0.97754h0.92285v-2.1738h1.2646"/>
<path id="path3416" d="m247.28,96.18c-0.67448,0.000007-1.2077,0.26433-1.5996,0.79297-0.39193,0.52409-0.58789,1.2441-0.58789,2.1602,0,0.91602,0.19368,1.6384,0.58105,2.167,0.39193,0.52409,0.92741,0.78614,1.6064,0.78613,0.66992,0.00001,1.2008-0.26432,1.5928-0.79296,0.39192-0.52865,0.58789-1.2487,0.58789-2.1602,0-0.9069-0.19597-1.6247-0.58789-2.1533-0.39193-0.5332-0.92285-0.7998-1.5928-0.7998m0-1.0664c1.0937,0.000008,1.9528,0.35548,2.5772,1.0664,0.62434,0.71094,0.93651,1.6953,0.93652,2.9531-0.00001,1.2533-0.31218,2.2376-0.93652,2.9531-0.62436,0.71094-1.4834,1.0664-2.5772,1.0664-1.0983,0-1.9596-0.35547-2.584-1.0664-0.6198-0.71549-0.92969-1.6999-0.92969-2.9531,0-1.2578,0.30989-2.2422,0.92969-2.9531,0.62434-0.71093,1.4857-1.0664,2.584-1.0664"/>
<path id="path3418" d="m257.31,96.474c-0.14128-0.08203-0.29623-0.14127-0.46484-0.17774-0.16407-0.04101-0.34636-0.06152-0.54688-0.06152-0.71094,0.000006-1.2578,0.23243-1.6406,0.69726-0.37826,0.46029-0.56739,1.1234-0.56739,1.9893v4.0332h-1.2646v-7.6563h1.2646v1.1895c0.26432-0.46484,0.6084-0.80891,1.0322-1.0322,0.42382-0.22786,0.9388-0.34179,1.5449-0.3418,0.0866,0.000008,0.18229,0.0068,0.28711,0.02051,0.10481,0.0091,0.22102,0.02507,0.34863,0.04785l0.007,1.292"/>
<path id="path3420" d="m262.12,99.106c-1.0163,0.000004-1.7204,0.11622-2.1123,0.34863-0.39193,0.23242-0.5879,0.62891-0.5879,1.1895,0,0.44662,0.14584,0.80209,0.4375,1.0664,0.29623,0.25976,0.69727,0.38965,1.2031,0.38965,0.69726,0,1.2555-0.2461,1.6748-0.73829,0.42383-0.49674,0.63574-1.1553,0.63575-1.9756v-0.28027h-1.251m2.5088-0.51953,0,4.3682-1.2578,0,0-1.1621c-0.28712,0.46484-0.64487,0.80892-1.0732,1.0322-0.42839,0.21875-0.95247,0.32812-1.5723,0.32812-0.78386,0-1.4082-0.21875-1.873-0.65625-0.46029-0.44206-0.69043-1.0322-0.69043-1.7705,0-0.86132,0.28711-1.5107,0.86133-1.9482,0.57877-0.4375,1.4401-0.65624,2.584-0.65625h1.7637v-0.12305c-0.00001-0.57877-0.19142-1.0254-0.57422-1.3398-0.37826-0.319-0.91147-0.47851-1.5996-0.47852-0.43751,0.000007-0.86361,0.05242-1.2783,0.15723-0.41472,0.10482-0.81348,0.26205-1.1963,0.47168v-1.1621c0.46028-0.17773,0.9069-0.30989,1.3398-0.39648,0.43294-0.09114,0.85449-0.13671,1.2646-0.13672,1.1074,0.000008,1.9346,0.28712,2.4814,0.86133,0.54686,0.57422,0.8203,1.4447,0.82031,2.6113"/>
<path id="path3422" d="m272.3,99.037c0-0.91145-0.18913-1.6178-0.56738-2.1191-0.3737-0.5013-0.90007-0.75195-1.5791-0.75195-0.67448,0.000007-1.2008,0.25066-1.5791,0.75195-0.3737,0.50131-0.56055,1.2077-0.56055,2.1191,0,0.9069,0.18685,1.611,0.56055,2.1123,0.37825,0.5013,0.90462,0.75195,1.5791,0.75195,0.67903,0,1.2054-0.25065,1.5791-0.75195,0.37825-0.5013,0.56738-1.2054,0.56738-2.1123m1.2578,2.9668c-0.00001,1.3034-0.2894,2.2718-0.86817,2.9053-0.57878,0.63801-1.4652,0.95702-2.6592,0.95703-0.44206-0.00001-0.85905-0.0342-1.251-0.10254-0.39193-0.0638-0.77247-0.16407-1.1416-0.30078v-1.2236c0.36913,0.20052,0.73372,0.34864,1.0938,0.44434,0.36002,0.0957,0.72688,0.14355,1.1006,0.14356,0.82487-0.00001,1.4424-0.21648,1.8525-0.64942,0.41015-0.42839,0.61523-1.0778,0.61523-1.9482v-0.62207c-0.25977,0.45117-0.59245,0.78841-0.99804,1.0117-0.40561,0.2233-0.89096,0.33496-1.4561,0.33496-0.9388,0-1.6953-0.35775-2.2695-1.0732-0.57422-0.7155-0.86133-1.6634-0.86133-2.8438,0-1.1849,0.28711-2.1351,0.86133-2.8506,0.57422-0.71549,1.3307-1.0732,2.2695-1.0732,0.5651,0.000008,1.0504,0.11166,1.4561,0.33496,0.40559,0.22331,0.73827,0.56055,0.99804,1.0117v-1.1621h1.2578v6.7061"/>
<path id="path3424" d="m282.69,98.812,0,0.61524-5.7832,0c0.0547,0.86588,0.31445,1.5267,0.7793,1.9824,0.4694,0.45117,1.1211,0.67676,1.9551,0.67675,0.48307,0.00001,0.95019-0.0592,1.4014-0.17773,0.45573-0.11849,0.9069-0.29622,1.3535-0.5332v1.1894c-0.45118,0.19141-0.91374,0.33724-1.3877,0.4375-0.47397,0.10026-0.95476,0.15039-1.4424,0.15039-1.2214,0-2.1898-0.35547-2.9053-1.0664-0.71094-0.71093-1.0664-1.6725-1.0664-2.8848,0-1.2533,0.33724-2.2467,1.0117-2.9805,0.67904-0.73827,1.5928-1.1074,2.7412-1.1074,1.0299,0.000008,1.8434,0.33269,2.4404,0.99805,0.60156,0.66081,0.90234,1.5609,0.90235,2.7002m-1.2578-0.36914c-0.009-0.68815-0.2028-1.2373-0.58105-1.6475-0.3737-0.41015-0.87045-0.61523-1.4902-0.61524-0.70182,0.000007-1.2646,0.19825-1.6885,0.59473-0.41928,0.39649-0.66081,0.95476-0.72461,1.6748l4.4844-0.0068"/>
</g>
</g>
<g id="flowRoot3316" style="writing-mode:lr-tb;text-anchor:middle;text-align:start;" font-weight="normal" transform="translate(250.87,337.16139)" line-height="125%" font-stretch="normal" font-size="12px" font-variant="normal" font-style="normal" font-family="Interstate-Bold" fill="#c8c5ac">
<path id="path3427" style="text-align:start;" d="m212.13,95.682-1.7051,0-0.49219,1.957,1.7168,0,0.48047-1.957m-0.87891-3.334-0.60938,2.4316,1.7109,0,0.61524-2.4316,0.9375,0-0.60352,2.4316,1.8281,0,0,0.90234-2.0566,0-0.48046,1.957,1.8633,0,0,0.89648-2.0918,0-0.60937,2.4258-0.9375,0,0.60351-2.4258-1.7168,0-0.60351,2.4258-0.94336,0,0.60937-2.4258-1.8457,0,0-0.89648,2.0625,0,0.49219-1.957-1.8867,0,0-0.90234,2.1152,0,0.59766-2.4316,0.94922,0"/>
<path id="path3429" style="text-align:start;" d="m217.35,100.78,0-1.0781c0.29687,0.14063,0.59765,0.24805,0.90234,0.32227,0.30469,0.0742,0.60352,0.11133,0.89649,0.11133,0.78124,0,1.377-0.26172,1.7871-0.78516,0.41405-0.52734,0.65038-1.3262,0.70898-2.3965-0.22657,0.33594-0.51368,0.59375-0.86133,0.77344-0.34766,0.17969-0.73242,0.26953-1.1543,0.26953-0.87501,0.000003-1.5684-0.26367-2.0801-0.79102-0.50782-0.53125-0.76172-1.2559-0.76172-2.1738,0-0.89843,0.26562-1.6191,0.79687-2.1621,0.53125-0.54296,1.2383-0.81444,2.1211-0.81445,1.0117,0.000009,1.7832,0.38868,2.3144,1.166,0.53515,0.77344,0.80273,1.8984,0.80274,3.375-0.00001,1.3789-0.32814,2.4805-0.98438,3.3047-0.65235,0.82032-1.5312,1.2305-2.6367,1.2305-0.29688,0-0.59766-0.0293-0.90234-0.0879-0.30469-0.0586-0.6211-0.14648-0.94922-0.26367m2.3555-3.709c0.53124,0.000004,0.95117-0.18164,1.2598-0.54492,0.3125-0.36328,0.46875-0.86132,0.46875-1.4941,0-0.6289-0.15625-1.125-0.46875-1.4883-0.30859-0.36718-0.72852-0.55077-1.2598-0.55078-0.53126,0.000008-0.95313,0.1836-1.2656,0.55078-0.30859,0.36329-0.46289,0.85938-0.46289,1.4883,0,0.63282,0.1543,1.1309,0.46289,1.4941,0.3125,0.36328,0.73437,0.54493,1.2656,0.54492"/>
<path id="path3431" style="text-align:start;" d="m225.16,99.965,1.9336,0,0-6.6738-2.1035,0.42188,0-1.0781,2.0918-0.42188,1.1836,0,0,7.752,1.9336,0,0,0.99609-5.0391,0,0-0.99609"/>
<path id="path3433" style="text-align:start;" d="m232.61,92.213,4.6465,0,0,0.99609-3.5625,0,0,2.1445c0.17187-0.05859,0.34374-0.10156,0.51562-0.12891,0.17187-0.03124,0.34375-0.04687,0.51563-0.04687,0.97655,0.000006,1.75,0.26758,2.3203,0.80273,0.5703,0.53516,0.85546,1.2598,0.85547,2.1738-0.00001,0.94141-0.29298,1.6738-0.87891,2.1973-0.58594,0.51954-1.4121,0.7793-2.4785,0.7793-0.36719,0-0.74219-0.0312-1.125-0.0937-0.37891-0.0625-0.77149-0.15625-1.1777-0.28125v-1.1895c0.35156,0.19141,0.71484,0.33398,1.0898,0.42773,0.375,0.09375,0.77149,0.14063,1.1895,0.14063,0.67578,0,1.2109-0.17774,1.6055-0.5332,0.39452-0.35547,0.59179-0.83789,0.59179-1.4473,0-0.60937-0.19727-1.0918-0.59179-1.4473-0.39454-0.35546-0.92969-0.5332-1.6055-0.5332-0.31641,0.000004-0.63282,0.03516-0.94922,0.10547-0.3125,0.07032-0.63281,0.17969-0.96094,0.32812v-4.3945"/>
<path id="path3435" style="text-align:start;" d="m240.27,100.78,0-1.0781c0.29688,0.14063,0.59766,0.24805,0.90235,0.32227,0.30468,0.0742,0.60351,0.11133,0.89648,0.11133,0.78125,0,1.377-0.26172,1.7871-0.78516,0.41406-0.52734,0.65039-1.3262,0.70899-2.3965-0.22657,0.33594-0.51368,0.59375-0.86133,0.77344-0.34766,0.17969-0.73243,0.26953-1.1543,0.26953-0.875,0.000003-1.5684-0.26367-2.0801-0.79102-0.50781-0.53125-0.76172-1.2559-0.76172-2.1738,0-0.89843,0.26563-1.6191,0.79688-2.1621,0.53125-0.54296,1.2383-0.81444,2.1211-0.81445,1.0117,0.000009,1.7832,0.38868,2.3145,1.166,0.53515,0.77344,0.80272,1.8984,0.80273,3.375-0.00001,1.3789-0.32813,2.4805-0.98437,3.3047-0.65235,0.82032-1.5313,1.2305-2.6367,1.2305-0.29688,0-0.59766-0.0293-0.90235-0.0879s-0.62109-0.14648-0.94922-0.26367m2.3555-3.709c0.53125,0.000004,0.95117-0.18164,1.2598-0.54492,0.31249-0.36328,0.46874-0.86132,0.46875-1.4941-0.00001-0.6289-0.15626-1.125-0.46875-1.4883-0.3086-0.36718-0.72852-0.55077-1.2598-0.55078-0.53125,0.000008-0.95312,0.1836-1.2656,0.55078-0.3086,0.36329-0.46289,0.85938-0.46289,1.4883,0,0.63282,0.15429,1.1309,0.46289,1.4941,0.3125,0.36328,0.73437,0.54493,1.2656,0.54492"/>
</g>
</svg>
